<svg width="726" height="493" viewBox="0 0 726 493" fill="none" xmlns="http://www.w3.org/2000/svg">
<g clip-path="url(#clip0_81_1419)">
<path fill-rule="evenodd" clip-rule="evenodd" d="M163.92 272.887C167.23 270.845 173.999 263.533 177.546 261.843C185.432 258.086 220.563 250.7 221.705 250.263C223.445 249.599 234.747 247.277 241.332 245.81C256.794 242.364 312.206 220.11 326.811 214.404C328.675 218.846 344.068 238.456 341.427 240.465C332.733 247.082 317.151 255.32 307.08 260.062C298.935 263.896 290.309 267.07 281.599 269.661C271.712 272.603 264.925 275.758 255.07 278.767C245.375 281.728 256.961 290.989 261.941 292.903C267.525 295.049 276.176 296.139 281.882 298C271.835 312.138 263.398 329.297 261.71 346.233C261.304 350.309 257.872 354.045 252.29 352.825C249.41 352.195 222.835 348.99 218.501 348.096C189.573 342.123 137.64 310.842 151.014 278.767C154.077 280.048 161.072 274.644 163.92 272.887Z" fill="#F0386B"/>
<path fill-rule="evenodd" clip-rule="evenodd" d="M180.104 102.708C182.265 102.543 187.853 98.6345 184.921 96.6578C181.963 94.6631 179.837 101.347 180.104 102.708ZM67.5274 117.699C68.0923 117.609 67.8457 114.81 66.9563 114.452C64.1491 113.324 63.912 117.565 63.8435 118.7C63.7581 120.132 63.56 124.167 66.9732 123.06C68.911 122.433 67.7087 118.773 67.5274 117.699ZM233.256 130.775C233.18 133.274 238.754 138.078 240.833 135.196C242.581 132.775 233.399 125.802 233.256 130.775ZM36.1582 74.4279C37.7735 78.1582 45.7613 73.0741 46.0582 70.3378C46.6677 64.7338 36.0748 70.6993 36.1582 74.4279ZM102.802 90.5117C106.522 90.2349 111.417 85.9529 115.004 84.353C117.432 83.2706 124.037 81.9803 124.756 79.5227C125.381 77.3869 114.173 81.9582 113.217 82.3641C108.82 84.2292 104.856 86.3552 102.802 90.5117ZM382.069 60.9831C385.034 58.9073 388.639 57.5682 392.44 57.6559C394.338 57.6998 398.298 58.7749 398.446 55.8029C398.689 50.9701 381.926 56.864 379.306 57.812C380.228 58.8696 381.149 59.9263 382.069 60.9831ZM197.097 249.316C194.922 246.045 191.009 244.155 188.068 241.365C189.146 245.946 186.715 250.021 185.044 254.203C189.062 252.574 193.079 250.945 197.097 249.316ZM574.848 319.038C576.047 315.405 577.247 311.793 578.649 308.216C580.217 304.211 580.997 303.864 577.243 301.064C574.128 306.395 571.012 311.727 567.896 317.059C570.114 317.913 572.429 318.744 574.848 319.038ZM252.398 56.0818C248.273 51.8719 228.94 51.6076 231.333 60.8991C232.167 64.1436 236.92 60.6969 239.898 59.9407C242.853 59.1898 251.22 59.09 252.398 56.0818ZM251.689 115.685C251.189 114.61 250.191 110.733 248.709 110.427C247.265 110.129 241.57 114.197 240.499 114.817C235.158 117.916 229.952 121.249 224.748 124.534C226.74 124.534 228.55 123.891 230.53 123.878C232.884 123.859 234.573 124.735 236.867 124.235C241.798 123.163 247.521 118.216 251.689 115.685ZM257.032 19.6239C257.496 17.6983 281.666 23.4787 284.571 24.5372C286.154 25.1129 294.319 28.956 292.564 23.1638C291.566 19.8648 282.129 17.3499 279.106 16.4458C271.418 14.1484 263.313 12.5142 255.128 12.8932C253.538 12.9663 241.501 13.5953 246.527 17.9762C248.259 19.4849 254.468 19.0094 257.032 19.6239ZM262.324 284.189C266.827 286.195 271.425 287.73 276.132 289.299C278.223 289.995 281.48 291.82 283.787 291.362C285.676 290.986 286.281 288.381 287.274 286.637C290.903 280.257 295.236 275.111 300.609 269.851C298.114 268.204 285.45 275.471 282.316 276.544C279.179 277.617 276.219 278.699 273.149 279.982C270.259 281.191 264.554 282.271 262.324 284.189ZM342.059 229.81C348.622 227.121 354.842 222.353 360.225 218.083C366.406 213.181 371.946 208.044 376.47 201.7C373.747 201.826 367.736 209.755 367.669 201.123C367.635 196.719 374.3 192.382 376.369 188.297C371.223 185.667 366.506 201.385 360.601 197.575C354.913 193.903 363.889 181.281 365.617 177.299C362.281 175.289 343.272 197.786 340.52 200.665C338.799 202.467 334.73 204.865 333.758 206.967C333.18 208.218 333.097 212.189 333.377 213.34C333.959 215.747 336.908 218.629 338.221 220.87C339.883 223.707 341.33 226.655 342.059 229.81ZM613.381 310.919C607.706 303.665 613.568 300.502 618.183 294.482C621.874 289.666 625.27 284.358 627.609 278.98C633.461 265.53 638.741 253.025 641.63 238.797C637.653 240.441 635.167 246.697 633.177 249.993C630.502 254.425 628.149 259.076 625.175 263.37C619.611 271.404 614.149 279.975 607.071 286.94C603.864 290.096 601.149 293.646 597.449 296.49C595.759 297.789 592.525 298.856 591.28 300.48C590.104 302.014 591.419 302.994 590.973 304.826C590.515 306.706 588.415 308.71 587.513 310.52C586.33 312.897 585.228 315.279 583.907 317.604C582.466 320.138 582.072 321.464 581.684 323.942C581.26 326.65 582.561 326.931 579.949 329.428C584.683 331.318 589.417 333.208 594.152 335.098C595.749 335.736 597.347 336.373 598.945 337.012C599.282 336.44 599.619 335.868 599.955 335.297C601.256 334.153 602.453 331.331 603.197 329.82C606.308 323.513 609.821 317.182 613.381 310.919ZM156.203 280.47C142.761 312.515 190 339.496 219.078 345.463C223.106 346.289 227.037 347.371 231.046 348.259C235.417 349.226 239.299 349.034 243.663 349.439C247.135 349.76 248.789 352.189 252.06 352.858C257.527 353.976 257.192 350.257 257.584 346.271C259.243 329.373 268.769 313.068 278.85 298.968C274.245 297.476 269.682 295.848 265.136 294.215C261.246 292.817 255.289 288.887 251.107 288.679C248.015 288.526 243.302 290.918 240.298 291.967C235.295 293.715 230.277 295.204 225.063 296.396C215.946 298.48 205.8 301.321 196.366 301.536C193.646 301.599 186.185 302.746 184.227 301.224C180.495 298.322 185.675 295.903 188.8 294.867C207.421 288.692 227.192 286.068 245.867 279.738C255.476 276.48 264.986 272.842 274.656 269.633C282.992 266.867 291.723 264.417 299.778 261.015C310.416 256.523 321.1 250.926 330.311 244.333C332.155 243.014 336.019 241.054 337.282 239.142C338.395 237.459 338.256 239.138 338.025 237.097C337.86 235.631 335.879 233.645 335.064 232.26C332.028 227.097 329.284 221.793 326.978 216.329C312.283 222.036 298.304 229.803 283.825 235.902C269.253 242.04 252.815 246.371 237.226 249.824C230.59 251.295 222.962 251.759 216.877 254.664C214.291 255.898 211.735 257.326 208.966 258.039C208.148 259.46 207.343 259.738 206.55 258.874C206.053 258.369 205.41 258.156 204.622 258.234C202.928 258.494 201.201 259.219 199.616 259.775C191.599 262.589 183.921 266.114 176.309 269.709C172.701 271.413 169.001 273.09 165.548 275.036C163.697 276.079 162.039 277.131 160.524 278.563C158.709 280.28 159.141 281.692 156.203 280.47ZM458.698 90.2101C462.095 90.2599 465.192 88.594 468.734 88.6865C474.305 88.8323 478.715 92.7431 481.948 96.5142C488.346 103.976 486.715 112.978 483.5 121.329C481.963 125.32 479.852 129.15 477.214 132.644C474.878 135.737 470.704 138.662 469.073 142.106C466.385 147.785 471.809 145.37 475.129 144.157C479.304 142.63 483.218 140.733 486.762 138.178C502.555 126.789 514.571 110.958 518.595 92.7778C520.558 83.9077 520.407 73.538 513.582 66.2981C507.344 59.6782 496.573 57.5152 487.366 58.7425C477.414 60.0704 468.395 63.8869 460.291 68.8C457.937 70.2276 455.782 71.7858 453.572 73.3823C450.672 75.4769 448.935 75.532 449.66 78.8149C450.199 81.2554 451.667 83.784 452.613 86.1259C454.384 90.5125 453.738 91.6474 458.698 90.2101ZM469.529 165.83L468.842 166.893C473.58 167.098 477.994 163.313 482.031 161.465C487.277 159.064 491.934 155.788 496.53 152.48C504.635 146.645 512.847 140.071 518.879 132.411C532.405 115.241 544.69 93.473 540.999 71.704C537.022 48.242 514.357 39.2107 490.206 42.3166C479.323 43.7161 469.607 48.1157 459.866 52.5819C454.957 54.8337 450.813 57.7546 446.315 60.582C443.981 62.05 441.852 62.2404 441.699 64.8072C441.585 66.7414 445.277 71.1151 446.276 72.8678C458.505 61.5722 471.684 52.2278 490.152 51.6504C512.124 50.9636 525.116 69.8259 525.02 87.8884C524.926 105.602 516.488 122.642 503.036 135.372C496.923 141.158 491.094 145.8 483.588 150.023C479.846 152.128 477.086 154.017 472.902 155.415C469.942 156.404 470.251 155.883 469.496 158.364C468.854 160.469 469.509 163.644 469.529 165.83ZM350.142 406.495C349.857 409.687 349.14 412.829 348.343 415.943C348.056 417.061 346.443 420.591 346.726 421.848C347.193 423.926 346.571 422.59 348.582 423.674C350.68 424.806 353.121 424.737 355.418 425.081C356.835 425.293 362.028 427.506 362.902 427.157C364.428 426.546 364.38 424.392 366.056 423.538C368.339 422.374 371.702 423.371 373.856 424.281C379.613 426.713 383.569 431.746 389.14 434.502C399.033 439.393 410.772 442.102 421.809 443.219C427.788 443.825 433.907 444.887 439.812 443.619C444.464 442.619 450.511 442.711 453.041 438.191C430.565 432.595 396.26 425.746 387.373 402.393C382.543 406.358 374.469 404.223 368.631 403.675C362.209 403.073 356.469 403.213 350.596 400.562C350.166 402.646 350.035 404.376 350.142 406.495ZM151.144 261.857C161.725 262.436 171.755 257.902 178.266 250.253C179.868 248.37 181.512 246.446 182.474 244.215C182.683 243.649 182.891 243.083 183.1 242.518C184.11 240.956 183.667 240.218 181.773 240.307C180.707 238.982 178.001 238.536 178.771 236.135C179.351 234.323 181.489 234.294 183.348 233.724C182.423 232.316 181.869 231.609 180.544 230.356C177.1 233.161 170.85 238.666 168.43 232.222C167.268 229.129 169.314 226.172 168.807 223.188C168.598 221.954 166.87 218.802 165.869 218.064C160.535 214.132 152.853 215.759 147.194 218.073C143.294 219.668 142.455 220.417 141.819 224.074C141.173 227.792 140.573 231.508 139.856 235.216C142.197 234.111 142.623 231.726 144.149 230.008C144.721 230.951 145.293 231.894 145.866 232.837C146.671 232.428 147.424 232.449 148.122 232.902C149.251 234.474 148.541 236.805 148.194 238.454C151.96 238.135 153.551 241.94 149.754 243.48C145.821 245.076 144.048 240.725 143.915 237.907C142.447 239.494 140.94 238.645 139.917 239.46C138.895 240.275 138.492 241.974 138.128 243.835C137.531 246.893 136.002 251.304 137.417 254.372C139.517 258.927 146.215 261.297 151.144 261.857ZM457.728 115.531C454.227 119.939 448.258 125.709 447.01 131.035C450.866 128.986 459.018 119.128 461.119 126.981C462.324 131.488 456.141 136.86 454.622 141.224C460.702 139.413 465.034 133.739 468.828 129.361C473.666 123.778 478.606 116.418 479.841 109.32C480.84 103.575 476.438 98.2209 469.898 97.658C466.558 97.3699 463.07 97.85 459.842 98.5517C458.37 98.8709 456.175 99.2675 454.862 99.9816C453.212 100.878 452.987 102.977 451.433 101.231C449.369 104.753 447.306 108.276 445.242 111.797C447.296 111.122 451.487 108.258 453.732 108.554C457.01 108.987 457.683 113.298 457.728 115.531ZM129.943 29.3004C120.765 29.5453 111.172 31.3149 102.483 33.9454C100.326 34.5992 91.223 36.9244 93.1398 40.2951C94.4068 42.523 101.238 39.3747 103.303 38.8497C112.154 36.5993 121.267 35.1152 130.333 33.7608C132.529 33.433 139.975 33.4654 140.359 30.8601C140.83 27.6812 132.535 29.2968 129.943 29.3004ZM379.727 391.875C374.752 392.425 369.976 392.219 364.996 391.667C360.806 391.203 356.538 389.65 352.369 389.65C352.369 393.691 352.066 393.716 356.775 394.581C360.062 395.185 363.395 395.524 366.717 395.945C372.565 396.686 379.058 398.764 384.978 397.696C384.834 396.994 384.381 392.258 383.768 391.79C383.422 391.527 380.229 391.879 379.727 391.875ZM299.326 92.8723C300.717 93.6748 303.915 96.8745 305.572 96.931C304.98 93.2263 300.415 86.7762 295.173 89.0656C293.888 89.627 291.19 92.4222 292.41 93.6554C293.062 94.3145 297.621 92.8765 299.326 92.8723ZM250.825 125.828C250.876 125.183 250.927 124.537 250.98 123.892C249.056 124.916 246.674 125.401 245.308 127.05C246.949 127.709 248.589 128.368 250.231 129.027C250.429 127.961 250.627 126.895 250.825 125.828ZM402.318 224.184C411.407 227.065 419.739 230.914 426.428 237.447C432.211 243.096 434.929 253.05 436.34 260.455C439.833 278.78 433.093 295.764 428.649 313.295C426.395 322.187 423.029 330.745 419.878 339.407C417.126 346.972 414.767 354.894 410.968 362.086C407.748 368.186 403.634 374.198 400.801 380.526C399.276 383.931 396.806 395.615 391.019 391.945C389.44 395.683 389.056 395.365 390.744 397.961C391.966 399.841 396.11 402.451 398.066 403.981C403.277 408.062 409.878 411.424 415.992 414.28C427.189 419.513 439.193 423.428 450.724 428.198C455.822 430.309 461.351 432.802 460.207 438.84C459.248 443.902 456.013 447.741 450.968 449.993C446.231 452.108 439.455 453.741 434.243 454.404C431.151 454.798 430.442 453.633 427.921 453.23C425.116 452.783 421.841 453.648 418.947 453.626C405.954 453.524 394.578 450.564 384.078 443.742C380.326 441.304 374.803 434.69 369.893 434.691C367.383 434.691 367.913 436.072 365.705 436.882C362.98 437.881 358.285 435.995 355.607 435.552C349.9 434.609 344.097 433.651 340.297 429.201C336.188 424.391 337.649 418.434 339.414 413.093C341.405 407.072 344.753 400.964 346.176 394.853C346.522 393.366 346.842 390.595 346.49 389.082C345.942 386.735 343.326 385.335 343.247 382.794C343.223 382.021 344.445 381.002 344.658 380.204C345.13 378.452 345.057 376.633 345.251 374.85C345.598 371.669 346.399 368.621 346.952 365.477C348.208 358.322 350.686 351.941 353.085 345.047C355.412 338.357 357.627 333.378 362.126 327.586C364.455 324.586 372.246 313.897 368.441 310.821C363.234 320.083 357.144 327.306 349.174 334.679C343.079 340.319 337.119 347.9 329.49 351.917C321.102 356.333 310.851 358.931 301.589 361.266C297.183 362.376 293.527 364.839 288.778 365.294C283.63 365.787 278.392 365.206 273.351 364.167C271.932 363.874 267.839 361.9 266.555 362.026C264.663 362.212 261.942 365.265 259.866 365.825C254.813 367.19 251.363 364.583 247.53 362.174C243.37 359.559 242.112 358.909 237.312 358.594C231.433 358.209 225.716 356.333 219.933 355.184C209.766 353.164 201.125 349.072 191.884 344.787C181.291 339.877 172.23 333.105 164.246 325.105C152.508 313.344 136.162 280.756 155.335 269.345C144.048 267.957 133.71 263.495 132.334 251.927C131.615 245.875 132.968 239.17 134.649 233.336C135.417 230.672 136.331 228.024 137.208 225.388C137.868 224.497 138.217 223.523 138.254 222.464C138.658 221.093 138.074 220.409 136.502 220.415C133.529 217.268 131.293 214.49 130.693 210.021C130.504 208.605 130.334 206.433 131.447 205.229C131.962 204.745 132.583 204.422 133.309 204.259C135.051 204.35 135.544 203.572 134.786 201.929C135.632 199.6 134.378 197.785 137.565 196.813C138.588 197.01 139.605 197.225 140.618 197.458C141.911 197.992 142.752 197.605 143.143 196.301C146.147 195.237 144.761 193.664 148.842 195.033C151.312 195.862 153.661 197.289 155.459 199.027C157.716 197.716 152.585 189.611 152.414 187.025C152.008 180.93 154.791 175.891 158.412 170.885C165.45 161.156 175.274 152.79 184.961 145.263C203.517 130.848 223.01 117.125 243.962 105.64C235.319 100.205 225.221 98.7317 214.936 101.258C205.455 103.587 197.77 107.816 189.042 111.516C180.957 114.942 172.375 116.349 169.797 106.999C166.908 96.5266 176.124 92.6387 184.39 87.9424C182.326 86.5484 175.531 87.5449 172.961 87.7098C167.236 88.0761 161.762 89.2464 156.199 90.2812C153.531 90.7768 151.08 90.6654 148.437 91.1511C144.508 91.8731 140.405 92.6824 136.43 93.711C126.972 96.1603 117.584 99.877 109.412 104.885C102.348 109.212 97.448 115.321 91.757 120.947C85.2665 127.363 79.0477 133.675 69.4255 136.024C64.9202 137.124 59.635 138.122 56.4404 134.478C53.4684 131.09 53.303 127.007 53.4005 122.865C53.6152 113.715 58.4976 103.826 64.1768 96.3492C70.3414 88.233 78.5976 83.5848 86.3989 77.0516C75.1234 77.7815 64.226 83.1633 53.8564 86.8827C51.6742 87.6661 49.4713 88.5459 47.2772 89.2705C44.9374 90.0432 43.3874 89.57 41.1461 89.9238C36.0302 90.7322 31.6362 92.6842 26.6602 89.5717C17.2458 83.6847 26.6779 71.7082 33.1596 68.0334C42.188 62.9155 51.3728 58.606 61.319 54.9552C55.9343 49.6671 60.5331 42.1204 65.4963 38.3689C71.7762 33.6219 79.7725 30.9016 87.3394 28.3605C93.3238 26.3506 99.2009 24.4209 105.418 23.2114C111.953 21.9404 119.594 19.9983 126.226 20.1845C132.445 20.3592 137.959 19.3672 144.258 19.2086C149.499 19.0767 154.751 19.1907 159.991 19.0677C174.09 18.738 188.241 19.599 202.02 20.517C191.103 -8.38802 263.013 0.538402 278.355 4.31397C292.297 7.74549 308.272 11.7261 319.983 19.8681C324.944 23.3166 329.656 27.2374 334.058 31.2608C340.553 37.1969 344.148 44.9708 347.583 52.6441C356.296 48.7794 364.627 44.568 374.161 42.6517C383.233 40.8289 392.525 38.3582 401.65 36.9812C408.587 35.9339 418.656 35.2235 424.495 39.6587C430.836 44.4762 434.14 51.9729 437.925 58.393C456.104 42.7756 476.38 31.382 502.298 32.1396C527.66 32.8812 544.338 52.7109 547.412 74.1994C550.799 97.8769 539.15 122.619 523.36 140.955C516.279 149.178 508.952 157.119 499.422 163.254C494.696 166.295 489.71 169.627 484.528 172.001C481.944 173.185 479.119 174.255 476.406 175.166C475.182 175.576 473.921 175.989 472.648 176.268C469.012 177.067 469.718 176.001 468.366 178.882C467.269 181.222 467.404 185.247 466.935 187.815C466.398 190.75 466.079 193.725 465.295 196.62C463.937 201.638 462.523 206.533 460.822 211.434C457.602 220.708 453.269 230.055 447.961 238.514C452.462 240.284 458.766 240.462 463.576 240.999C468.783 241.579 473.996 242.799 479.405 244.168C490.241 246.911 499.924 249.227 510.229 253.334C520.926 257.598 530.461 263.964 540.761 269.031C550.234 273.691 559.809 279.527 568.606 285.121C570.698 286.452 571.994 287.609 573.66 289.294C575.365 291.016 575.908 291.353 577.944 292.845C578.863 293.517 581.534 296.91 582.582 297.035C584.46 297.26 584.172 295.991 585.646 294.219C588.724 290.52 593.018 287.654 596.075 283.862C598.624 280.7 601.283 277.497 604.008 274.778C610.603 268.196 616.067 260.902 620.756 253.012C623.196 248.905 625.765 244.996 628.415 241.119C631.053 237.26 635.744 232.166 640.997 232.394C640.575 230.429 639.233 230.102 641.549 228.9C643.041 228.126 645.945 229.374 647.095 230.16C650.138 232.242 650.273 236.281 650.081 239.315C649.587 247.135 647.78 254.854 645.261 262.247C642.233 271.135 638.439 278.977 634.298 287.459C631.001 294.217 626.908 303.153 618.703 306.237C624.213 313.36 621.567 319.164 617.885 326.726C615.194 332.254 611.639 337.966 606.224 341.624C600.121 345.748 593.501 342.25 587.118 339.524C583.263 337.877 571.473 333.992 573.871 328.925C570.926 328.569 569.073 326.632 566.393 326.036C563.555 325.405 564.042 326.448 561.04 326.84C558.737 327.139 555.294 325.273 553.126 324.604C549.505 323.489 545.895 322.346 542.279 321.218C532.101 318.044 522.095 314.919 511.817 312.377C492.694 307.646 473.334 304.962 454.278 300.737C450.458 299.89 446.66 299.073 442.683 298.395C441.861 298.255 437.6 298.04 437.082 297.244C436.175 295.849 438.963 288.043 439.203 286.452C440.773 276.01 440.26 264.578 438.047 254.254C437.129 249.962 433.024 244.405 433.06 240.216C433.084 237.405 435.835 234.337 437.45 231.791C441.444 225.497 445.629 218.696 448.588 212.146C453.118 202.126 455.893 190.815 457.894 180.083C458.936 174.488 460.149 168.423 460.433 162.763C460.65 158.449 460.259 153.924 460.95 149.506C458.313 149.732 454.582 150.969 452.206 149.645C449.207 147.974 448.401 143.202 448.784 140.353C438.514 141.976 438.855 133.157 439.491 126.261C420.929 126.261 444.701 101.288 447.671 95.925C449.035 93.4596 448.995 96.2289 448.392 92.4159C448.128 90.7393 446.862 88.8819 446.146 87.3408C444.586 83.9761 442.899 80.6631 441.098 77.3992C437.292 70.5049 432.981 63.8433 428.276 57.4206C424.04 60.0927 420.222 63.256 416.685 66.65C418.954 61.2773 425.887 54.621 422.921 48.52C420.173 42.8647 410.994 43.2569 405.573 44.2908C390.843 47.1028 376.715 51.1984 362.682 55.9401C367.029 58.1969 373.684 56.4535 378.003 54.728C383.352 52.5906 389.103 50.3481 394.866 49.2161C399.894 48.2286 406.496 48.5655 405.043 54.6959C403.865 59.6631 398.499 64.4467 394.959 68.1608C387.158 76.3439 377.376 82.6784 367.768 89.0075C357.44 95.8118 347.488 103.204 337.028 109.811C318.122 121.754 297.793 132.134 278.26 143.283C268.109 149.075 256.607 153.737 245.599 158.03C233.489 162.753 221.879 167.81 209.315 171.54C202.338 173.612 195.423 175.317 188.567 177.675C184.27 179.151 176.787 182.111 173.947 177.725C168.181 168.817 189.049 157.101 194.767 151.654C198.712 155.123 179.258 168.049 180.781 173.1C181.977 177.069 186.605 171.944 188.839 170.862C192.45 169.114 196.727 168.235 200.356 166.24C207.8 162.148 216.625 157.429 218.325 148.971C217.142 147.841 217.157 146.798 218.369 145.842C218.909 145.26 219.337 144.622 219.652 143.926C220.182 142.597 220.395 140.932 220.678 139.523C221.516 135.357 219.413 131.457 221.379 127.38C209.907 135.25 198.88 144.14 187.99 152.66C178.222 160.302 168.03 170.309 164.441 181.712C163.981 183.173 163.216 184.831 163.3 186.373C163.464 189.4 163.797 188.747 166.491 189.721C169.185 190.694 173.107 190.61 176.005 190.713C177.656 190.771 185.031 189.188 183.565 192.469C182.72 194.361 177.607 194.289 175.776 194.464C171.182 194.903 168.691 194.452 170.867 198.962C171.843 200.982 173.819 202.351 175.37 203.915C179.686 208.267 182.029 214.941 185.424 220.053C189.292 225.877 193.543 231.416 198.06 236.84C199.925 239.078 202.416 243.284 205 244.882C207.413 246.373 204.574 246.25 208.582 245.644C210.329 245.381 211.912 244.351 213.583 243.983C223.575 241.779 233.845 239.295 244.178 236.575C257.394 233.095 271.265 230.128 283.875 225.117C295.171 220.627 306.383 215.281 317.798 210.734C321.131 209.407 324.461 208.527 327.052 206.084C330.179 203.136 332.768 199.277 335.653 196.109C340.558 190.719 345.079 185.236 350.359 180.128C354.289 176.328 361.255 169.262 366.8 167.745C377.336 164.864 371.696 179.394 370.334 183.066C372.811 183.575 374.113 180.699 377.02 181.526C380.5 182.517 380.86 186.708 381.296 189.334C381.411 190.033 380.365 191.341 380.683 191.965C380.791 192.178 383.062 193.394 383.5 193.957C385.091 196.004 384.778 198.494 384.175 200.701C381.057 212.137 369.975 220.487 361.824 228.923C365.47 228.298 368.173 226.416 371.615 225.484C374.846 224.609 378.094 224.654 381.351 224.404C384.76 224.141 388.035 222.986 391.523 222.927C395.184 222.865 398.688 223.809 402.318 224.184Z" fill="black"/>
<path fill-rule="evenodd" clip-rule="evenodd" d="M16.8288 121.324C14.8189 122.514 14.2523 123.681 14.1829 126.425C14.1551 127.551 14.2409 131.749 15.9781 131.591C17.6085 131.442 16.8288 122.768 16.8288 121.324ZM6.4459 128.163C7.38247 119.368 10.9364 110.425 19.2966 104.945C21.3641 103.59 23.703 103.638 25.969 102.783C27.3308 102.269 29.4824 99.8811 31.0285 100.164C36.7197 101.206 30.1445 108.053 29.1817 109.854C26.1978 115.434 26.3993 120.338 26.4884 126.357C26.5562 130.932 27.6062 138.645 25.0587 142.786C22.3432 147.196 16.4535 144.332 13.1659 141.722C9.01665 138.428 5.88295 133.181 6.4459 128.163Z" fill="black"/>
<path fill-rule="evenodd" clip-rule="evenodd" d="M106.354 154.153C106.354 159.061 110.754 155.739 110.597 152.248C110.367 147.108 106.149 150.273 106.354 154.153ZM129.744 127.022C124.928 130.943 121.214 133.143 120.286 139.172C119.584 143.739 120.282 148.262 120.312 152.862C120.362 160.572 113.485 168.679 106.085 159.84C100.686 153.393 102.623 143.255 107.024 136.776C109.335 133.377 112.632 130.014 116.441 127.895C119.307 126.301 127.366 123.164 129.744 127.022Z" fill="black"/>
<path fill-rule="evenodd" clip-rule="evenodd" d="M62.4979 245.858C61.9395 247.054 60.6291 251.937 63.3028 250.832C65.6634 249.856 64.1341 246.62 62.4979 245.858ZM48.3696 230.784C47.9568 228.948 48.125 217.438 51.6264 218.301C54.3767 218.978 54.8311 224.87 55.9515 226.92C60.1238 234.556 69.7001 239.311 73.0024 247.192C76.6884 255.992 65.5442 256.266 59.6308 252.702C52.6289 248.481 48.5774 238.149 48.3696 230.784Z" fill="black"/>
<path fill-rule="evenodd" clip-rule="evenodd" d="M39.7857 183.591C41.3054 181.733 41.459 180.741 40.5928 179.098C39.4855 180.188 39.6821 181.747 39.7857 183.591ZM40.8853 191.901C32.9635 192.704 32.5669 179.486 33.9237 174.947C35.004 171.333 37.3268 167.449 39.7177 164.504C40.2007 163.91 44.7809 158.569 45.6787 158.556C49.124 158.507 48.1772 162.032 47.8056 163.344C46.6351 167.478 46.1713 170.933 46.4863 175.517C46.8243 180.421 49.389 192.064 40.8853 191.901Z" fill="black"/>
<path fill-rule="evenodd" clip-rule="evenodd" d="M400.576 77.428C389.249 86.0291 378.495 95.3408 366.178 102.864C360.151 106.546 353.85 109.804 347.836 113.545C344.773 115.451 341.647 117.157 338.249 118.558C335.248 119.796 333.285 119.957 335.775 117.019C337.44 115.057 341.172 113.69 343.44 112.295C346.93 110.147 350.225 107.763 353.897 105.857C360.369 102.496 366.801 99.7819 372.767 95.6591C378.062 92.0012 383.525 88.429 388.578 84.5413C390.745 82.8741 397.931 75.2198 400.576 77.428Z" fill="black"/>
<path fill-rule="evenodd" clip-rule="evenodd" d="M400.805 108.486C405.899 112.431 393.154 123.24 390.247 125.69C387.182 128.273 383.806 130.578 380.473 132.866C379.299 133.672 372.897 139.067 371.273 138.631C368.066 137.772 372.276 134.272 373.37 133.36C376.91 130.404 380.526 127.536 383.987 124.501C387.109 121.767 390.489 119.234 393.508 116.411C395.954 114.124 398.008 110.248 400.805 108.486Z" fill="black"/>
<path fill-rule="evenodd" clip-rule="evenodd" d="M23.396 267.527C22.0659 264.736 19.6839 267.835 20.8915 269.228C22.0336 270.547 23.2259 268.063 23.396 267.527ZM15.5972 262.017C16.3102 257.913 17.9581 255.633 22.2094 259.135C25.1308 261.543 31.0063 268.386 30.4488 272.116C29.717 277.01 23.7642 275.621 20.6784 273.063C17.5154 270.44 16.1191 265.655 15.5972 262.017Z" fill="black"/>
<path fill-rule="evenodd" clip-rule="evenodd" d="M24.9136 342.773C19.7056 342.414 15.2624 338.794 13.0507 334.551C11.1898 330.983 9.4285 325.232 15.9661 327.108C20.227 328.33 36.6524 343.348 24.9136 342.773Z" fill="black"/>
<path fill-rule="evenodd" clip-rule="evenodd" d="M88.0301 319.513C84.0056 320.343 80.0242 317.943 77.5493 315.236C76.0095 313.551 72.4252 307.642 74.2311 305.209C76.7481 301.817 80.5485 308.636 81.8594 309.986C83.9156 312.1 90.6391 316.142 88.0301 319.513Z" fill="black"/>
<path fill-rule="evenodd" clip-rule="evenodd" d="M91.6551 227.242C88.5004 225.917 85.5713 224.321 84.3028 221.155C83.4958 219.138 82.8182 213.092 86.4011 213.12C90.5455 213.153 100.036 226.637 91.6551 227.242Z" fill="black"/>
<path fill-rule="evenodd" clip-rule="evenodd" d="M69.5365 164.335C73.7608 164.266 74.7609 166.375 75.3483 169.406C75.7471 171.463 77.6822 178.445 75.6725 179.875C72.8012 181.919 68.2336 177.236 67.3103 175.398C65.4071 171.613 68.0385 167.89 69.5365 164.335Z" fill="black"/>
<path fill-rule="evenodd" clip-rule="evenodd" d="M142.122 373.69C144.178 374.537 148.858 376.417 147.07 379.332C145.2 382.381 139.833 379.418 137.827 378.085C136.988 377.528 131.655 373.876 131.878 372.652C132.348 370.05 139.7 373.446 142.122 373.69Z" fill="black"/>
<path fill-rule="evenodd" clip-rule="evenodd" d="M6.61229 183.275C8.0178 186.462 9.59989 197.409 2.19865 191.498C-0.060012 189.693 -0.400865 187.44 0.377348 184.963C1.50257 181.373 3.14011 182.085 6.61229 183.275Z" fill="black"/>
<path fill-rule="evenodd" clip-rule="evenodd" d="M398.83 142.508C397.191 139.476 401.238 137.521 403.4 135.567C404.812 134.29 410.748 127.368 412.694 127.759C416.697 128.564 400.799 141.156 398.83 142.508Z" fill="black"/>
<path fill-rule="evenodd" clip-rule="evenodd" d="M69.4833 362.102C73.3451 361.541 74.246 365.425 76.7342 367.118C77.8011 367.844 81.4639 368.482 80.7271 370.024C78.7913 374.072 69.294 364.824 69.4833 362.102Z" fill="black"/>
<path fill-rule="evenodd" clip-rule="evenodd" d="M102.094 270.375C104.748 269.368 112.409 274.773 110.21 277.107C106.921 280.6 102.281 272.285 102.094 270.375Z" fill="black"/>
<path fill-rule="evenodd" clip-rule="evenodd" d="M158.045 348.557C156.11 348.731 147.945 346.407 150.97 343.296C153.094 341.111 158.739 346.579 158.045 348.557Z" fill="black"/>
<path fill-rule="evenodd" clip-rule="evenodd" d="M60.2637 333.628C58.3427 334.323 51.4146 332.892 53.5929 330.168C55.6679 327.575 60.2665 331.475 60.2637 333.628Z" fill="black"/>
<path fill-rule="evenodd" clip-rule="evenodd" d="M116.982 345.38C119.228 345.169 120.851 346.395 121.236 348.472C118.428 348.834 117.561 348.229 116.982 345.38Z" fill="black"/>
<path fill-rule="evenodd" clip-rule="evenodd" d="M409.084 43.9659C410.033 43.9696 410.98 43.9738 411.92 43.9775C410.97 43.9732 410.027 43.9696 409.084 43.9659Z" fill="black"/>
<path fill-rule="evenodd" clip-rule="evenodd" d="M394.195 222.746C392.777 222.747 391.359 222.75 389.941 222.751C391.36 222.749 392.778 222.747 394.195 222.746Z" fill="black"/>
<path fill-rule="evenodd" clip-rule="evenodd" d="M200.741 13.4805C200.676 14.7658 200.611 16.0511 200.544 17.332C200.608 16.0456 200.674 14.7625 200.741 13.4805Z" fill="black"/>
<path fill-rule="evenodd" clip-rule="evenodd" d="M640.075 231.736C640.528 233.164 639.865 233.401 638.086 232.445C638.748 232.209 639.412 231.972 640.075 231.736Z" fill="black"/>
<path fill-rule="evenodd" clip-rule="evenodd" d="M599.801 343.746C600.512 343.749 601.224 343.754 601.928 343.757C601.214 343.754 600.507 343.749 599.801 343.746Z" fill="black"/>
<path fill-rule="evenodd" clip-rule="evenodd" d="M465.094 240.418C463.905 241.238 462.722 241.354 461.549 240.374C462.73 240.39 463.912 240.404 465.094 240.418Z" fill="black"/>
<path fill-rule="evenodd" clip-rule="evenodd" d="M438.552 130.953C438.523 132.025 438.492 133.095 438.461 134.163C438.491 133.09 438.522 132.022 438.552 130.953Z" fill="black"/>
<path fill-rule="evenodd" clip-rule="evenodd" d="M499.834 31.9036C498.652 31.9029 497.47 31.9017 496.289 31.9004C497.472 31.4998 498.653 31.6314 499.834 31.9036Z" fill="black"/>
<path fill-rule="evenodd" clip-rule="evenodd" d="M153.141 18.8425C151.959 18.9054 150.777 18.9683 149.596 19.0313C150.777 18.9683 151.959 18.9054 153.141 18.8425Z" fill="black"/>
<path fill-rule="evenodd" clip-rule="evenodd" d="M182.209 19.046C181.264 18.9735 180.318 18.9003 179.373 18.8278C180.318 18.9003 181.263 18.9735 182.209 19.046Z" fill="black"/>
<path fill-rule="evenodd" clip-rule="evenodd" d="M197.807 20.0634C196.862 20.3824 195.917 20.5711 194.971 20.0678C195.917 20.0666 196.862 20.0646 197.807 20.0634Z" fill="black"/>
<path fill-rule="evenodd" clip-rule="evenodd" d="M113.438 21.821C112.255 22.0387 111.074 22.2563 109.893 22.472C111.075 22.2563 112.256 22.0387 113.438 21.821Z" fill="black"/>
<path fill-rule="evenodd" clip-rule="evenodd" d="M439.263 283.09C439.231 283.733 439.199 284.376 439.167 285.016C439.201 284.372 439.232 283.731 439.263 283.09Z" fill="black"/>
<path fill-rule="evenodd" clip-rule="evenodd" d="M48.5452 231.094C48.5591 231.523 48.5723 231.952 48.5849 232.378C48.5702 231.948 48.5584 231.521 48.5452 231.094Z" fill="black"/>
<path fill-rule="evenodd" clip-rule="evenodd" d="M644.467 228.791L640.922 228.807C642.101 228.01 643.283 228.111 644.467 228.791Z" fill="black"/>
<path fill-rule="evenodd" clip-rule="evenodd" d="M401.994 224.244C401.048 224.103 400.103 223.962 399.158 223.821C400.103 223.962 401.049 224.103 401.994 224.244Z" fill="black"/>
<path fill-rule="evenodd" clip-rule="evenodd" d="M142.506 373.594C141.324 373.386 140.143 373.176 138.961 372.968L142.506 373.594Z" fill="black"/>
<path fill-rule="evenodd" clip-rule="evenodd" d="M381.111 189.369C381.089 188.726 381.067 188.083 381.046 187.443C381.067 188.085 381.089 188.727 381.111 189.369Z" fill="black"/>
<path fill-rule="evenodd" clip-rule="evenodd" d="M156.686 19.0552C155.976 18.9763 155.267 18.8973 154.559 18.8184C155.267 18.8973 155.976 18.9763 156.686 19.0552Z" fill="black"/>
<path fill-rule="evenodd" clip-rule="evenodd" d="M272.959 3.18044C272.25 2.98593 271.54 2.79143 270.832 2.59692C271.541 2.79143 272.25 2.98593 272.959 3.18044Z" fill="black"/>
<path fill-rule="evenodd" clip-rule="evenodd" d="M357.328 436.15C357.802 436.177 358.277 436.203 358.746 436.229C358.27 436.202 357.798 436.176 357.328 436.15Z" fill="black"/>
<path fill-rule="evenodd" clip-rule="evenodd" d="M31.9043 91.449C32.6161 91.4657 33.3278 91.483 34.0312 91.5003C33.3159 91.483 32.6101 91.4657 31.9043 91.449Z" fill="black"/>
<path fill-rule="evenodd" clip-rule="evenodd" d="M507.633 32.5303C506.451 32.4552 505.27 32.3801 504.088 32.3043C505.271 32.3801 506.451 32.4552 507.633 32.5303Z" fill="black"/>
<path fill-rule="evenodd" clip-rule="evenodd" d="M133.998 29.5248C132.34 29.5272 130.684 29.5296 129.035 29.5321C130.697 29.5296 132.347 29.5272 133.998 29.5248Z" fill="black"/>
<path fill-rule="evenodd" clip-rule="evenodd" d="M468.959 161.766C468.98 162.837 469.003 163.908 469.027 164.975C469.006 163.903 468.985 162.834 468.959 161.766Z" fill="black"/>
<path fill-rule="evenodd" clip-rule="evenodd" d="M382.143 391.596C381.194 391.583 380.247 391.569 379.307 391.555C380.257 391.566 381.199 391.582 382.143 391.596Z" fill="black"/>
<path fill-rule="evenodd" clip-rule="evenodd" d="M482.818 51.4785C484.236 51.336 485.654 51.1935 487.072 51.051C485.711 52.141 484.241 51.4156 482.818 51.4785Z" fill="black"/>
<path fill-rule="evenodd" clip-rule="evenodd" d="M374.344 391.932C373.632 391.908 372.922 391.884 372.217 391.861C372.93 391.885 373.637 391.908 374.344 391.932Z" fill="black"/>
<path fill-rule="evenodd" clip-rule="evenodd" d="M349.83 403.13C349.865 404.202 349.901 405.273 349.937 406.34C349.902 405.266 349.866 404.198 349.83 403.13Z" fill="black"/>
<path fill-rule="evenodd" clip-rule="evenodd" d="M458.004 90.8953C458.95 90.8157 459.895 90.7361 460.84 90.6571C459.977 91.2592 458.964 90.9068 458.004 90.8953Z" fill="black"/>
<path fill-rule="evenodd" clip-rule="evenodd" d="M148.178 261.671C149.123 261.829 150.069 261.985 151.014 262.142C150.068 261.985 149.123 261.829 148.178 261.671Z" fill="black"/>
<path fill-rule="evenodd" clip-rule="evenodd" d="M295.646 92.7612C296.826 91.851 298.008 91.9498 299.191 92.7509C298.009 92.7535 296.829 92.7574 295.646 92.7612Z" fill="black"/>
<path fill-rule="evenodd" clip-rule="evenodd" d="M251.283 125.176C251.317 124.748 251.35 124.32 251.386 123.892C251.354 124.321 251.318 124.748 251.283 125.176Z" fill="black"/>
<path fill-rule="evenodd" clip-rule="evenodd" d="M457.635 112.979C457.644 113.836 457.653 114.694 457.664 115.547C457.655 114.687 457.645 113.833 457.635 112.979Z" fill="black"/>
<path fill-rule="evenodd" clip-rule="evenodd" d="M144.834 247.162C146.39 247.64 149.519 249.082 151.331 248.891C152.782 248.737 153.979 247.14 155.378 247.142C159.146 247.146 158.448 251.09 156.627 253.208C151.703 258.935 140.7 252.725 144.834 247.162Z" fill="black"/>
<path fill-rule="evenodd" clip-rule="evenodd" d="M160.214 226.6C165.353 227.801 162.794 238.036 158.474 238.739C153.387 239.568 152.501 231.247 153.506 228.239C156.124 229.647 154.503 234.671 157.802 233.282C159.899 232.398 159.58 228.312 160.214 226.6Z" fill="black"/>
</g>
<defs>
<clipPath id="clip0_81_1419">
<rect width="726" height="493" fill="white"/>
</clipPath>
</defs>
</svg>
