<svg width="627" height="391" viewBox="0 0 627 391" fill="none" xmlns="http://www.w3.org/2000/svg">
<path fill-rule="evenodd" clip-rule="evenodd" d="M534.946 345.386C538.263 346.811 541.362 346.81 544.624 347.919C547.862 349.021 548.706 353.586 551.475 354.132C538.64 355.259 526 357.649 513.01 356.461C514.134 352.632 512.114 348.713 514.82 345.12C522.054 339.403 526.758 341.866 534.946 345.386ZM480.75 82.2227C480.917 84.9148 481.155 85.9847 483.443 87.7215C485.235 89.0821 486.243 87.0536 486.414 89.7111C486.512 91.2441 484.605 92.0136 483.867 93.2526C480.188 99.4258 482.727 107.399 484.535 113.548C488.201 126.017 497.156 139.574 490.846 152.248C490.211 153.526 489.7 156.296 488.471 157.275C486.85 156.56 485.667 156.872 484.921 158.213C484.473 158.633 484.025 159.053 483.578 159.473C480.742 161.664 477.724 162.478 473.96 161.314C466.371 158.967 465.116 151.604 465.076 145.807C465.032 139.419 466.661 132.728 468.402 126.504C469.241 123.507 470.532 120.028 468.128 117.201C465.858 114.531 463.053 116.036 460.818 114.844C458.438 113.575 461.865 104.25 459.521 101.777C455.427 97.4599 454 108.022 453.935 110.179C453.864 112.542 454.017 115.299 455.35 117.441C456.398 119.124 459.807 120.601 460.391 122.299C460.939 123.887 458.539 128.011 458.169 129.715C457.598 132.34 457.4 135.022 457.236 137.682C456.683 146.671 458.371 156.131 465.778 163.106C469.025 166.165 474.529 169.638 479.678 169.081C484.223 168.589 488.79 166.539 493.029 165.146C495.88 174.294 500.162 183.154 504.724 191.794C508.689 199.304 512.417 206.995 516.583 214.413C525.362 230.049 539.612 243.368 550.746 257.825C561.496 271.782 567.524 287.798 568.969 304.276C569.311 308.172 567.949 313.504 569.035 317.147C570.054 320.562 570.948 322.046 570.281 325.77C569.54 329.91 568.104 333.727 568.721 337.938C569.268 341.675 571.4 347.242 569.07 350.704C566.271 348.213 563.479 347.04 561.782 343.718C560.058 340.346 560.736 337.575 556.829 336.093C553.492 334.827 551.098 335.103 548.152 333.03C544.575 330.513 542.137 327.436 540.374 323.832C537.366 317.681 536.93 311.014 539.474 304.697C541.513 299.633 547.47 290.153 555.822 293.546C554.581 291.418 553.756 289.104 551.389 287.721C549.328 286.517 546.246 286.124 543.945 284.755C541.372 283.224 538.459 281.59 535.587 280.47C534.472 280.036 533.417 279.817 532.264 279.52C530.883 279.164 528.262 279.42 528.092 279.398C523.159 278.775 517.658 276.791 514.645 273.802C512.378 271.552 510.374 269.451 508.643 266.877C506.396 263.535 505.531 263.737 501.22 262.943C494.955 261.791 490.979 261.004 485.967 257.121C480.409 252.815 476.341 247.448 472.274 242.164C469.891 239.067 467.796 238.878 463.913 237.642C461.655 236.924 458.528 233.706 456.472 233.468C455.879 233.398 453.037 234.479 452.075 234.608C450.357 234.841 448.866 234.799 447.144 234.648C443.195 234.302 439.704 233.428 437.048 230.846C428.87 222.896 426.377 204.154 437.574 197.391C439.707 196.102 442.679 195.509 443.937 193.369C445.381 190.913 444.724 186.286 444.608 183.697C444.477 180.741 444.311 177.525 443.782 174.612C443.539 173.273 443.358 172.71 442.704 171.369C441.406 168.711 441.026 169.098 438.354 168.458C434.542 167.547 432.818 167.906 430.481 164.883C428.617 162.472 427.745 159.434 427.575 156.583C427.417 153.924 428.853 151.466 427.654 149.057C425.899 145.531 422.644 142.863 421.216 139.005C420.013 135.756 416.907 128.503 419.969 125.505C421.341 124.162 423.777 123.965 425.138 122.168C427.508 119.037 428.465 117.325 431.983 114.858C434.578 113.038 437.07 110.325 440.198 109.212C443.275 108.117 446.179 109.879 448.676 109.396C451.399 108.869 450.683 103.594 451.438 101.219C452.457 98.016 454.642 94.677 457.288 92.1779C458.171 91.343 459.273 91.1825 459.961 90.0726C460.893 88.5698 460.523 86.4284 461.25 84.7851C462.117 82.8214 464.223 79.4409 466.577 78.3645C473.453 75.2196 475.519 83.3235 480.75 82.2227ZM464.658 314.781C465.628 316.965 465.091 320.475 466.208 322.354C467.097 323.852 470.669 324.802 472.42 326.588C476.169 330.412 477.597 336.554 476.236 341.276C471.648 340.33 468.58 339.724 463.915 340.223C463.444 331.665 463.885 323.336 464.658 314.781ZM407.951 321.231C411.072 324.139 412.621 327.566 412.17 331.454C412.009 332.838 411.503 334.777 411.015 336.107C410.479 337.566 407.814 340.297 408.848 341.079C405.936 340.934 402.514 341.216 400.416 339.643C398.532 338.231 397.214 334.592 396.45 332.664C397.92 330.212 399.391 327.76 400.862 325.309C401.819 326.578 404.63 329.891 406.952 328.831C408.7 328.033 407.289 322.845 407.951 321.231ZM517.516 298.564C521.089 301.337 522.31 306.337 522.127 310.218C522.186 315.567 519.97 326.274 511.645 326.632C504.955 326.921 497.82 318.917 497.068 313.97C496.243 308.547 498.391 295.578 506.901 294.462C510.035 294.052 515.258 296.81 517.516 298.564ZM457.719 305.48C457.862 308.987 457.932 312.36 457.599 315.855C457.322 318.776 458.247 322.227 457.465 325.024C452.516 320.398 445.996 315.362 446.194 308.563C446.38 302.136 452.754 302.683 457.719 305.48ZM407.84 228.205L411.982 231.998C412.101 237.328 411.975 242.598 413.917 247.737C415.961 253.144 419.386 258.355 422.777 263.245C429.369 272.747 430.94 281.71 431.735 292.578C419.338 287.939 412.578 272.085 408.488 262.169C406.322 256.919 404.077 251.665 402.034 246.382C400.019 241.172 396.459 234.365 398.803 228.877C403.306 231.643 405.254 233.068 407.84 228.205ZM485.086 265.612C491.139 269.633 491.597 275.787 493.77 281.411C492.517 282.247 491.141 282.983 490.009 283.936C489.31 284.525 487.663 286.935 487.126 287.182C484.981 288.173 483.108 286.901 481.013 285.304C476.889 282.157 474.314 275.48 474.508 270.862C474.733 265.468 479.298 261.766 485.086 265.612ZM569.777 241.981C577.644 245.746 575.592 256.164 574.611 262.04C573.995 265.723 575.36 269.47 575.265 272.973C575.158 276.928 572.702 276.108 571.131 278.563C569.767 275.586 567.265 272.003 566.696 268.882L565.791 266.907C566.557 266.65 566.964 266.204 567.011 265.568C567.333 264.056 567.328 262.513 567.429 260.971C567.846 254.598 568.423 248.266 569.777 241.981ZM449.906 249.016C449.035 251.79 448.397 257.009 443.505 255.401C439.645 254.131 438.713 249.005 438.704 246.149C438.698 243.803 439.16 239.494 443.087 239.354C447.907 239.181 449.628 246.307 449.906 249.016ZM412.666 171.796C409.412 176.15 407.153 182.582 408.691 187.738C410.304 193.152 415.325 194.462 419.79 190.478C423.475 195.325 415.92 203.956 409.166 199.348C407.706 198.353 406.726 196.447 404.921 195.826C403.441 195.317 402.129 196.009 400.618 195.722C395.97 194.839 394.215 191.025 392.389 187.824C392.89 185.215 393.421 182.628 394.097 180.045C394.457 178.671 394.831 177.299 395.195 175.926C395.814 173.594 395.622 173.885 397.646 172.729C402.986 169.681 406.659 169.53 412.666 171.796ZM415.423 174.146L419.329 181.402C417.201 180.974 414.882 186.309 413.492 187.348C412.842 182.909 414.399 178.464 415.423 174.146ZM413.258 149.363C416.79 150.606 417.493 155.992 417.617 158.598C416.647 161.341 415.74 164.85 411.635 162.918C408.897 161.628 407.723 157.381 407.629 155.062C407.512 152.153 408.82 147.8 413.258 149.363Z" fill="#F0386B"/>
<path fill-rule="evenodd" clip-rule="evenodd" d="M386.802 86.3522C385.348 86.8985 388.125 90.9809 388.556 91.7299C389.684 93.6849 391.058 97.7247 393.728 96.6126C391.419 93.1927 389.111 89.7722 386.802 86.3522ZM45.2427 323.218C43.2969 322.497 40.6946 328.698 40.3479 329.958C39.3809 333.467 40.1901 335.825 43.5531 338.094C42.1611 333.078 43.8286 328.083 45.2427 323.218ZM494.394 57.6902C491.974 55.0662 488.478 50.1942 483.589 52.7734C481.658 53.7925 480.172 57.059 478.982 58.6547C477.112 61.1598 475.302 63.5715 473.879 66.2685C476.296 65.4385 477.721 63.6336 479.882 62.6469C481.359 61.9731 482.706 61.9083 484.128 61.4171C487.274 60.332 491.581 59.268 494.394 57.6902ZM99.8668 316.228C101.176 320.508 102.387 324.777 103.4 329.113C104.085 332.047 106.387 336.192 105.186 339.063C108.298 338.713 111.41 338.364 114.522 338.015C112.213 333.626 110.999 328.942 110.313 324.201C109.893 321.299 110.431 320.472 107.814 318.858C105.787 317.607 102.219 317.006 99.8668 316.228ZM82.6541 152.378C88.6375 157.381 93.8705 163.084 100.229 167.746C103.533 170.168 106.92 172.523 110.311 174.859C113.186 176.84 117.759 181.207 121.501 181.814C121.963 180.218 123.057 177.603 122.764 175.966C123.856 175.023 123.517 174.334 121.747 173.898C120.664 173.203 119.594 172.496 118.534 171.776C114.374 168.876 110.438 165.726 106.497 162.624C102.579 159.54 98.9548 156.314 95.5536 152.831C93.7618 150.996 92.7139 149.157 89.7753 148.617C86.2842 147.977 85.1225 150.251 82.6541 152.378ZM202.238 338.149C202.069 340.867 210.072 342.533 212.504 342.696C219.077 343.137 223.346 340.729 225.608 335.98C230.317 326.096 237.857 317.388 241.01 306.995C241.946 303.911 242.755 302.508 239.422 300.936C238.054 300.292 234.492 298.855 233.005 299.675C231.589 300.456 230.429 303.969 229.519 305.246C228.073 307.275 226.429 309.204 224.86 311.167C217.518 320.348 210.12 329.289 202.238 338.149ZM107.253 202.031L137.981 216.709C139.263 213.013 139.852 209.16 141.053 205.436C141.908 202.788 144.108 199.049 143.969 196.725C143.762 193.255 140.545 188.649 139.142 185.342C137.395 181.22 135.647 177.098 133.899 172.976C131.532 174.867 128.807 176.187 128.778 178.651C128.762 180.059 129.885 180.938 129.234 182.533C128.777 183.652 126.832 185.138 125.893 185.969C123.15 188.401 123.236 188.523 120.353 186.249C115.986 191.51 111.62 196.77 107.253 202.031ZM141.059 270.85C141.499 267.314 142.064 263.924 143.016 260.454C143.601 258.322 146.073 253.945 145.26 251.937C144.663 250.461 141.11 249.178 139.727 248.375C135.724 246.052 131.815 243.607 127.852 241.237C124.377 239.158 120.851 237.129 117.441 234.976C114.283 232.982 111.9 230.501 108.078 229.647C104.734 228.898 100.492 229.387 97.0284 229.291C92.3808 229.161 87.6614 229.119 83.0182 229.308C67.4362 229.945 49.9802 229.035 34.9894 232.666C27.9044 234.381 23.337 235.391 19.3763 240.998C14.7959 247.481 10.8825 254.219 7.55054 261.222C7.0641 262.245 5.96445 263.72 6.00532 264.838C6.08671 266.972 7.00071 266.48 9.45034 267.697C12.0973 269.012 14.6918 270.572 17.2203 272.053C21.5562 274.591 26.9393 277.242 31.4375 279.222C36.8497 281.604 42.3021 283.74 47.8074 286.138C51.2959 287.659 54.9067 288.901 58.3285 290.572C62.0434 292.386 66.2027 292.902 70.2073 294.318C82.6075 298.705 94.6086 302.758 106.777 307.762C118.655 312.646 130.669 316.773 142.821 321.081C158.527 326.649 174.078 331.798 190.459 335.648C191.658 335.93 194.179 336.925 195.364 336.879C197.896 336.782 198.47 335.236 199.991 333.494C202.981 330.07 205.861 326.581 208.721 323.082C214.923 315.49 220.989 307.814 227.667 300.504C208.743 296.093 191.197 287.955 174.562 279.602C173.853 281.265 173.289 284.949 171.019 285.505C168.211 286.193 166.172 282.944 164.914 281.45C163.723 283.927 161.685 292.282 157.874 292.099C152.608 291.846 153.538 284.922 152.882 282.175C149.979 285.398 146.614 289.105 142.669 284.148C139.935 280.712 140.238 274.681 141.059 270.85ZM360.316 231.364C357.876 230.727 355.451 230.161 353.065 229.447C352.437 228.335 351.395 227.998 349.939 228.436C348.746 228.525 347.586 228.402 346.458 228.065C341.473 227.353 335.951 226.429 331.187 225.229C326.945 224.159 322.945 223.215 318.635 222.411C316.076 221.935 304.675 219.24 302.99 220.826C302.472 221.314 303.364 227.228 303.238 228.283C303.015 230.157 302.904 233.243 301.483 234.804C300.938 235.403 298.862 236.066 298.111 236.532C295.673 238.047 293.42 239.929 290.995 241.499C285.7 244.928 280.543 248.486 275.139 251.802C271.321 254.146 266.95 255.306 262.709 257.009C265.726 257.46 271.632 255.033 274.678 254.281C278.623 253.306 282.494 252.223 286.529 251.33C294.803 249.5 303.279 247.434 311.687 245.486C316.851 244.289 322.306 243.043 327.312 241.458C329.533 240.755 331.276 239.121 332.743 240.785C333.913 242.112 332.497 243.859 331.597 244.843C326.348 250.582 312.093 251.978 304.463 254.359C295.852 257.045 287.356 259.875 278.49 261.762C268.135 263.966 256.895 265.652 247.246 269.523C239.24 272.734 230.172 273.979 221.66 275.863C213.667 277.633 204.188 277.988 196.633 280.992C199.897 283.145 204.725 284.268 208.528 285.715C213.184 287.487 217.889 289.103 222.494 290.981C224.454 291.78 226.505 292.968 228.488 293.632C231.006 294.476 230.683 294.031 233.284 293.86C237.331 293.594 242.792 292.986 246.08 295.448C250.045 298.417 247.532 301.67 248.115 305.303C248.514 307.794 248.717 307.394 252.028 307.775C255.075 308.124 258.119 308.532 261.125 309.076C264.836 309.749 268.635 310.876 272.249 311.847C277.854 313.354 278.464 315.128 284.306 313.183C300.945 307.643 318.155 303.089 334.9 297.847C342.613 295.433 350.359 290.775 357.619 287.276C366.934 282.787 375.356 277.931 381.663 270.457C384.537 267.05 387.535 261.296 386.931 257.066C386.39 253.284 383.041 249.08 380.882 245.828C378.124 241.676 375.697 240.064 371.478 237.306C368.545 235.389 364.014 231.339 360.316 231.364ZM175.01 263.505C175.268 265.593 173.807 274.199 175.254 275.523C177.729 277.787 183.797 275.145 186.145 274.47C193.773 272.28 202.639 272.759 210.406 271.024C217.941 269.342 225.312 267.161 232.889 265.447C236.954 264.527 240.812 263.085 244.81 261.99C249.261 260.771 254.229 260.102 258.357 258.268C257.846 257.207 239.986 259.758 237.956 259.896C230.906 260.374 224.269 259.466 217.32 258.399C201.994 256.044 187.553 250.46 172.424 246.837C173.133 252.666 192.768 253.826 190.429 260.59C189.776 262.475 180.993 265.557 178.088 264.374C172.186 261.97 179.405 258.587 182.347 257.743C177.869 255.599 173.584 253.272 169.496 250.629C165.12 247.8 163.237 243.83 160.892 239.734C155.989 231.17 144.387 226.189 135.375 220.858C125.63 215.093 115.254 210.192 105.515 204.441C103.777 203.414 102.965 203.885 102.355 202.011C101.701 200.003 104.102 197.452 105.267 195.921C108.329 191.896 111.896 188.086 115.941 184.716C110.724 181.75 105.089 179.301 100.197 175.944C95.2379 172.541 91.1343 168.387 86.7596 164.491C79.771 177.194 69.9764 188.976 62.2847 201.434C59.2464 206.355 57.6403 213.797 62.2607 218.565C67.1231 223.584 76.1901 221.63 83.0538 221.896C90.2979 222.177 96.9062 222.863 104.051 224.579C107.284 225.356 110.226 225.126 113.333 226.374C116.977 227.836 120.56 229.714 124.027 231.448C130.844 234.856 137.213 239.124 143.65 243.013C146.291 244.608 160.609 254.065 149.284 252.605C149.284 261.455 147.428 270.518 146.454 279.324C149.14 276.645 151.055 273.922 152.68 270.704C153.646 268.788 153.658 263.901 156.879 265.06C161.724 266.802 157.95 279.605 157.95 283.068C159.151 281.13 159.992 279.043 160.856 276.99C161.511 275.434 162.329 271.023 163.695 269.98C168.268 266.488 168.909 276.011 168.909 277.999C170.391 274.488 170.663 270.741 170.812 267.032C170.87 265.568 170.437 263.291 170.88 261.876C171.616 259.516 171.528 259.67 174.487 258.672C174.661 260.283 174.836 261.894 175.01 263.505ZM316.286 338.187C316.649 341.181 318.036 343.349 315.679 346.042C320.234 345.769 324.719 345.435 329.282 345.532C332.945 345.609 338.424 346.309 341.842 344.998C343.234 344.464 343.708 345.384 344.424 344.363C345.104 343.394 343.507 340.177 343.315 339.378C342.393 335.548 341.944 331.619 341.107 327.765C340.533 325.117 338.845 319.907 340.967 317.404C344.089 313.721 345.463 318.909 346.276 321.213C348.955 328.802 348.8 336.01 348.8 343.808C352.835 343.808 358.135 342.336 362.026 341.449C367.393 340.224 373.124 338.965 378.324 337.365C383.229 335.857 387.548 333.656 390.649 330.113C392.968 327.463 398.111 320.926 396.833 317.996C395.267 314.403 387.799 311.933 383.81 311.538C378.635 311.025 373.332 311.894 368.037 312.259C362.368 312.649 356.869 313.704 351.261 314.211C345.814 314.703 338.504 316.221 333.213 315.084C333.075 316.902 334.895 319.346 335.529 321.197C336.36 323.625 337.102 326.074 337.777 328.534C338.499 331.168 342.972 340.636 338.904 342.529C334.13 344.751 331.851 335.236 331.257 332.917C329.839 327.387 328.62 321.861 330.105 316.302C324.011 315.385 316.661 316.747 310.376 317.109C312.718 323.999 314.228 331.214 316.286 338.187ZM53.8089 341.182C55.928 341.969 58.8402 341.547 61.1436 341.698C64.7434 341.934 68.38 342.478 72.0036 342.381C77.5329 342.234 83.3294 341.65 88.8632 341.122C85.7066 336.366 83.7912 331.863 83.3973 326.412C83.2556 324.455 82.0117 312.312 86.3366 312.831C88.4233 313.082 87.9803 323.45 88.3852 325.36C88.9738 328.131 89.7332 330.968 90.6576 333.681C91.3284 335.648 93.6105 338.595 93.0257 340.723C95.8156 340.345 98.6061 339.967 101.397 339.59C99.2271 335.976 97.6423 332.738 96.8299 328.707C96.4372 326.762 96.6875 324.341 95.9262 322.494C95.4462 321.329 94.3518 320.234 94.2056 319.257C94.0367 318.131 95.5142 315.362 94.9676 314.362C94.4307 313.378 90.6925 312.468 89.3826 311.925C85.7725 310.431 83.6567 310.053 79.6106 310.912C71.8063 312.569 59.5103 313.745 53.6899 318.213C47.9239 322.641 45.8255 337.574 53.8089 341.182ZM394.648 125.365C396.808 125.162 398.946 125.036 401.118 124.942C397.945 121.213 395.063 117.315 392.433 113.302C391.144 111.336 389.926 109.339 388.76 107.32C387.422 105.003 387.459 103.491 384.552 103.031C380.527 102.393 375.143 103.667 371.002 103.522C367.802 103.409 360.619 100.894 358.041 101.806C360.391 105.83 358.505 112.09 358.597 116.421C358.689 120.728 358.049 124.892 357.141 129.139C362.631 129.139 369.502 127.556 375.044 126.848C381.496 126.025 388.074 125.982 394.648 125.365ZM307.499 346.474C309.613 346.248 311.624 346.178 313.759 346.178C308.949 339.665 305.318 332.381 305.277 324.621C305.272 323.606 306.733 317.772 306.25 317.287C305.307 316.343 301.398 317.088 300.327 317.178C295.947 317.543 291.078 317.516 286.954 318.834C284.109 319.744 284.078 319.194 282.946 321.992C282.277 323.646 281.796 325.536 281.783 327.276C281.755 330.792 283.098 334.901 284.833 338.067C286.485 341.081 289.095 344.313 292.685 345.931C296.821 347.797 302.649 346.686 307.499 346.474ZM351.227 104.511C350.395 101.916 350.755 102.502 347.989 102.179C347.407 102.112 341.073 102.222 340.709 102.532C340.291 102.89 340.45 108.173 340.395 108.777C340.208 110.85 339.93 112.917 339.66 114.982C338.563 123.369 336.482 131.487 334.922 139.805C338.777 137.806 344.349 140.531 347.642 138.368C350.244 136.659 349.854 131.189 350.048 128.776C350.698 120.698 350.92 112.601 351.227 104.511ZM490.426 94.717C490.079 95.1823 489.732 95.6475 489.386 96.1128C490.732 96.8336 498.612 89.5004 500.364 88.1883C502.698 86.4413 506.391 84.1086 507.444 81.5543C508.667 78.5861 507.464 73.9 507.168 70.8308C506.956 68.6342 507.406 65.5962 505.262 64.0616C503.289 62.6496 498.429 62.6875 496.092 62.9895C489.08 63.8963 484.863 68.7131 481.324 73.3029C484.918 72.9338 497.588 68.1019 499.059 70.7151C501.197 74.5117 487.891 77.9063 486.575 81.2376C489.299 82.0412 495.307 78.9243 493.617 84.1102C493.328 84.8359 492.825 85.4368 492.108 85.9129C490.864 86.2809 490.57 86.9741 491.225 87.9933C490.668 90.0245 490.782 92.5945 490.426 94.717ZM571.131 278.563C571.169 279.794 571.304 280.971 572.508 281.841C575.18 274.774 576.014 267.703 577.121 260.353C578.228 253.002 579.407 245.468 579.582 238.124C579.779 229.892 578.848 220.938 577.254 212.806C576.008 206.448 575.043 198.624 570.505 193.213C573.082 207.236 572.28 220.531 570.543 234.603C569.621 242.076 568.319 249.49 567.721 256.994C567.564 258.977 567.513 260.982 567.307 262.961C567.185 264.126 565.804 266.335 565.791 266.907C565.723 270.084 569.795 275.646 571.131 278.563ZM434.026 267.641C436.169 271.76 438.606 275.818 439.891 280.199C441.247 284.824 440.663 289.132 440.881 293.819C441.241 301.596 440.495 309.326 440.625 317.114C440.736 323.751 440.432 330.223 440.511 336.79C440.562 340.944 440.289 345.083 440.306 349.235C440.306 349.222 440.504 352.962 440.162 353.151C438.627 354.003 436.95 352.794 436.479 351.629L431.93 355.929C434.314 355.429 437.247 354.383 439.699 354.291C440.637 354.002 441.572 353.994 442.504 354.267C443.428 354.733 444.113 355.384 444.559 356.219C450.983 357.362 454.838 352.586 455.992 348.316C458.495 339.05 457.593 329.902 457.411 320.548C457.018 300.226 460.883 280.025 460.517 259.702C460.447 255.769 460.267 251.882 460.975 247.957C462.288 240.665 464.227 247.34 464.538 250.781C465.473 261.123 467.102 271.794 466.206 282.199C465.4 291.575 465.475 301.037 464.916 310.441C464.321 320.436 463.364 330.22 463.915 340.223C467.128 339.88 477.463 339.368 478.539 343.139C479.478 346.427 475.701 345.211 473.739 345.072C470.558 344.846 467.45 345.47 463.973 344.949C464.229 349.372 464.959 355.305 460.227 358.291C457.9 359.76 454.045 361.086 451.326 361.953C448.661 362.802 444.147 364.684 441.371 364.581C439.407 364.508 438.65 363.624 436.494 363.765C433.296 363.975 430.528 365.762 427.138 364.286C420.708 361.486 423.868 353.344 427.928 350.08C428.975 349.238 430.151 348.318 431.556 347.908C432.223 347.713 435.017 347.949 435.339 347.656C436.528 346.578 435.044 340.272 434.885 339.075C434.051 332.797 433.143 326.386 432.801 320.08C432.479 314.151 432.122 308.21 431.877 302.279C431.824 300.988 432.51 298.332 431.862 297.204C430.785 295.327 426.06 294.133 424.01 293.259C425.837 308.207 428.521 324.273 421.908 338.511C420.595 341.338 419.122 345.373 415.793 346.946C412.655 348.428 405.266 348.219 401.506 348.395C397.463 348.585 393.506 347.796 391.278 344.625C389.526 342.129 390.576 339.136 394.175 338.048C396.329 337.396 396.749 337.815 398.637 338.59C399.046 339.145 399.333 339.742 399.5 340.381H400.95C402.917 341.114 410.776 341.933 412.937 340.764C415.442 339.41 415.987 335.749 417.055 333.574C419.038 329.533 419.563 326.254 420.283 321.934C421.41 315.173 420.269 307.333 420.29 300.289C420.296 298.305 420.306 296.321 420.309 294.337C420.314 291.341 420.626 291.359 418.58 289.202C415.496 285.952 411.979 282.629 408.678 279.513C410.466 288.618 409.734 298.204 409.024 307.274C408.625 312.37 407.8 317.56 407.422 322.589C407.308 324.1 408.607 328.266 406.507 328.934C404.376 329.611 401.723 326.45 400.862 325.309C396.163 333.142 390.555 340.696 380.86 344.749C375.876 346.832 370.685 347.772 365.245 348.589C360.206 349.347 355.548 350.728 350.58 351.379C340.296 352.728 330.824 352.918 320.476 352.624C310.713 352.346 301.365 353.852 291.633 351.956C287.835 351.216 283.997 349.857 281.4 347.428C279.984 346.103 279.357 344.016 277.928 342.795C277.606 341.214 276.493 340.726 274.587 341.331C273.39 341.376 272.198 341.343 271.011 341.232C261.25 340.804 250.402 341.281 240.944 338.952C237.354 338.068 233.346 336.612 235.137 332.858C236.702 329.578 241.022 330.574 244.564 330.861C254.853 331.693 264.982 333.212 275.42 333.977C275.084 329.421 275.373 324.773 277.511 320.512C270.27 319.752 262.763 318.607 255.874 316.676C253.746 316.08 251.628 315.46 249.518 314.822C246.039 313.771 246.762 313.499 244.747 315.333C242.215 317.637 240.665 322.445 238.831 325.229C236.767 328.362 234.786 331.459 233.047 334.73C231.401 337.825 230.173 341.971 227.664 344.638C222.147 350.505 209.403 351.014 201.903 348.709C198.23 347.58 196.904 347.402 194.677 344.652C192.238 341.639 191.632 341.463 187.138 341.054C179.024 340.315 171.365 338.613 163.763 336.264C155.732 333.782 147.485 331.847 139.477 329.167C131.981 326.658 124.735 324.135 116.979 322.176C116.058 327.064 119.872 332.575 119.872 337.613C124.385 337.236 128.594 336.905 133.067 336.305C134.662 336.091 144.713 334.208 145.693 335.319C149.781 339.953 131.182 342.133 128.275 342.745C118.96 344.709 109.461 346.534 100.087 348.052C90.5185 349.601 81.1909 351.144 71.4777 351.422C55.0418 351.893 32.3716 351.099 33.1562 333.06C33.4641 325.992 36.95 318.321 43.6204 313.711C47.7706 310.843 52.946 309.266 58.02 307.968C59.8945 307.488 69.77 306.368 70.0702 305.75C67.2874 304.085 62.5311 303.65 59.2296 302.366C56.082 301.142 52.7604 300.686 49.5384 299.451C43.1003 296.986 36.8821 293.972 30.9291 290.923C26.1948 288.498 21.4081 285.82 17.0496 282.937C13.5863 280.647 10.2673 278.445 7.49879 275.827C6.04984 274.457 3.48506 273.244 2.32461 272.065C-1.75057 267.922 2.54713 259.678 4.28263 254.855C6.81765 247.804 10.2007 240.303 15.1899 234.195C19.778 228.579 24.8933 224.795 33.1232 223.479C40.7192 222.265 48.3573 221.88 56.126 221.54C54.8206 217.391 52.9829 214.463 53.4493 209.914C53.8892 205.622 56.483 201.358 58.5187 197.45C62.3034 190.184 65.8741 183.073 71.0502 176.384C73.895 172.708 77.0905 169.218 80.196 165.696C80.6967 165.128 83.8093 162.53 83.6903 161.798C83.5719 161.071 80.4464 158.856 79.9677 158.349C76.7535 154.94 74.5315 151.27 78.3059 147.622C80.2736 145.72 86.0591 141.879 88.8438 144.295C91.8549 139.213 97.1216 135.747 101.222 131.423C106.334 126.032 111.215 120.558 116.001 114.91C120.765 109.287 124.657 103.247 130.973 98.7152C138.012 93.6655 144.637 94.1021 153.282 96.2609C153.776 93.4753 154.462 93.846 157.687 92.916C160.128 92.2119 162.501 91.3765 164.901 90.5816C167.453 89.7359 170.035 89.2561 172.643 88.5915C176.117 87.7063 176.639 87.9954 177.204 84.2264C177.887 79.6722 175.554 74.857 174.049 70.5671C173.307 68.4505 172.79 65.8156 171.12 64.3918C169.608 63.1041 166.928 62.5178 165.275 61.0939C151.03 48.8271 150.805 22.6356 165.979 11.235C168.928 9.01899 171.36 6.0378 175.031 4.54153C179.062 2.89828 184.378 1.56953 188.818 0.795183C197.968 -0.799973 208.23 -0.293652 215.463 5.07973C219.031 7.72968 221.206 11.9418 222.422 15.7044C223.584 19.2983 223.335 25.3731 218.931 19.8187C216.154 16.3155 213.741 12.7426 209.041 11.0097C204.84 9.46155 199.711 8.62561 195.134 8.95415C184.348 9.72795 175.608 12.3736 168.142 19.0422C159.887 26.4155 159.467 38.1873 161.247 47.5632C162.815 44.79 163.877 40.399 168.273 39.8695C171.937 39.428 177.712 43.3359 175.746 46.7002C166.824 44.8003 164.214 56.0712 171.93 56.7499C174.265 56.9553 177.223 53.4818 179.374 54.2907C183.396 55.8027 178.006 61.0129 176.943 62.7285C176.379 63.0187 175.814 63.3089 175.249 63.5996C175.805 64.6792 176.367 65.7573 176.934 66.8331C177.622 68.2051 178.276 69.5803 178.881 70.9799C180.351 74.3858 181.876 77.8976 182.762 81.4457C183.662 85.0531 184.13 89.2658 182.001 92.655C179.661 96.3803 177.458 95.922 175.66 92.3783C170.955 94.8559 166.224 97.4977 160.692 98.4753C166.493 106.605 174.001 113.593 185.292 116.15C194.86 118.317 206.906 118.238 216.036 114.653C225.51 110.932 230.724 102.237 229.596 93.5855C229.23 90.7837 227.278 81.0518 231.922 88.0916C234.469 91.9525 234.656 98.2153 234.075 102.449C231.298 122.701 206.723 130.277 185.533 125.402C174.662 122.901 166.829 116.206 160.997 108.324C159.637 106.487 158.392 104.59 157.177 102.683C156.691 101.921 156.263 100.857 155.615 100.189C153.075 97.5696 155.571 99.0291 152.874 98.7011C148.7 98.1943 142.133 100.864 139.034 102.98C130.625 108.719 125.968 117.9 119.514 125.133C112.643 132.833 103.917 139.687 95.1642 145.831C105.066 154.303 114.966 162.774 124.868 171.246C126.913 169.355 130.801 165.032 131.345 162.503C131.664 161.021 130.233 156.142 134.635 158.314C137.607 159.78 138.735 166.055 139.662 168.623C141.094 172.588 143.505 176.322 145.064 180.246C147.956 187.527 151.518 194.743 154.48 202.076C155.684 205.058 159.119 208.758 155.819 211.283C150.804 215.118 149.313 207.567 147.985 204.682C146.136 206.83 146.376 210.312 145.422 212.817C144.84 214.348 143.067 216.73 143.126 218.237C143.226 220.815 146.028 221.583 148.552 223.023C153.249 225.704 158.069 228.32 162.371 231.442C164.166 232.744 165.817 234.061 167.127 235.737C168.271 237.199 168.615 240.497 169.879 241.515C171.532 242.845 177.644 241.918 180.871 242.207C186.26 242.692 191.721 244.293 196.953 245.443C206.211 247.478 215.732 250.408 225.428 251.496C234.95 252.563 243.885 252.033 253.375 250.611C258.559 249.834 264.126 248.906 268.857 246.823C274.305 244.425 279.136 240.588 284.226 237.691C286.503 236.394 288.833 235.168 291.163 233.939C294.275 232.296 293.462 232.652 293.664 230.042C293.899 227.02 295.409 221.251 292.993 218.563C291.984 217.44 288.889 216.619 287.432 215.803C285.313 214.615 283.413 213.235 281.143 212.279C278.664 211.235 278.591 212.062 277.441 209.502C276.396 207.177 275.706 204.742 274.747 202.393C270.357 191.649 269.223 180.738 267.404 169.519C266.559 164.308 264.486 157.218 266.834 152.142C270.099 145.082 272.831 154.955 273.52 157.486C276.638 153.026 278.429 148.065 281.671 143.662C283.562 141.094 284.487 139.782 285.552 136.969C285.984 135.83 286.157 134.884 287.069 133.938C288.998 131.936 289.284 133.077 291.289 133.028C297.601 132.873 303.804 133.009 310.121 133.253C313.612 133.388 317.104 133.46 320.62 133.449C322.333 133.443 324.066 133.374 325.778 133.456C326.7 133.448 327.618 133.505 328.531 133.628C330.416 134.363 331.136 133.73 330.69 131.728C332.331 128.86 332.222 124.284 332.803 121.155C333.387 118.006 333.929 114.852 334.418 111.69C334.679 110.001 336.872 103.625 335.708 102.237C334.555 100.86 328.545 101.169 326.767 100.922C314.945 99.2804 303.948 95.2109 292.891 91.8769C287.447 90.2358 282.28 88.0197 277.059 86.0064C274.341 84.958 271.772 82.7993 268.907 82.1271C265.292 81.2787 260.492 82.635 256.889 83.1457C250.023 84.1189 243.4 84.971 236.433 85.2877C233.972 85.3995 229.29 85.9761 227.069 84.563C222.608 81.725 227.688 80.0656 230.603 79.7073C243.499 78.123 256.356 77.2125 269.351 76.5511C269.96 76.5202 272.192 76.1415 272.934 76.3371C274.627 76.7834 273.944 77.3011 274.958 77.7615C276.837 78.6142 278.98 79.2421 281.364 79.7711C288.17 81.2809 295.022 83.8141 301.851 85.8048C314.137 89.3863 328.816 95.0969 341.104 94.0929C344.136 93.8454 346.63 93.5288 349.8 93.7854C353.513 94.0864 355.68 95.6773 358.532 96.1398C362.354 96.7591 367.821 96.2938 371.843 96.4127C375.679 96.5262 379.518 96.6748 383.355 96.6748C379.985 91.0139 377.933 85.6989 376.039 79.6192C375.006 76.3036 373.451 73.2921 374.125 69.8003C374.443 68.1522 375.232 66.6035 376.091 65.1148C377.389 62.8674 377.758 63.3375 378.218 60.8486C378.852 57.4232 377.943 53.8114 378.441 50.3758C378.952 46.8499 382.142 43.7072 382.497 40.3364C382.687 38.5429 381.485 37.079 381.845 35.1445C382.166 33.4143 383.393 31.6003 384.495 30.1435C387.06 26.7489 390.184 24.8241 394.519 23.4413C398.004 22.3298 402.452 21.3101 405.973 23.1101C409.566 24.9462 409.306 28.6418 411.028 31.3382C414.729 37.1363 423.269 42.3179 430.076 45.2791C436.33 47.9993 443.067 49.7176 449.772 51.4916C453.853 52.5713 458.049 53.3413 462.06 54.575C464.947 55.4633 469.655 57.6178 472.595 56.309C475.157 55.1683 478.145 51.6873 480.681 50.071C483.648 48.1803 487.605 46.3349 491.34 47.982C495.076 49.6285 494.769 55.6978 497.675 56.8391C498.687 57.2368 501.694 56.0718 503.074 56.2555C505.303 56.5516 506.838 57.7042 508.175 59.1232C513.166 64.4258 514.712 72.8366 514.93 79.3734C515.039 82.6383 514.944 86.6991 512.557 89.4712C509.773 92.7047 504.504 92.7847 500.93 95.0602C498.072 96.8801 496.046 99.8554 493.145 101.795C491.358 102.99 490.668 102.072 489.928 103.935C489.446 105.146 490.42 107.51 490.707 108.682C492.484 115.913 495.812 122.583 498.97 129.471C500.458 132.717 501.72 135.964 502.399 139.404C502.844 141.661 502.33 143.634 502.546 145.806C502.699 147.352 503.486 148.687 503.312 150.272C502.946 153.63 500.763 156.595 499.375 159.548C497.793 162.915 499.966 168.745 501.56 172.226C505.379 180.567 510.75 188.994 515.522 197.009C520.209 204.881 523.695 213.265 529.156 220.828C534.46 228.172 540.7 235.364 546.734 242.311C550.091 246.175 553.652 249.85 556.695 253.903C557.36 254.789 561.899 262.139 563.076 261.884C561.633 249.059 563.093 235.72 563.738 222.903C564.545 206.859 562.101 192.326 556.697 177.011C555.433 173.43 554.307 169.767 553.418 166.108C552.796 163.546 551.039 161.441 555.352 162.561C562.492 164.415 568.777 175.676 572.408 180.578C580.538 191.556 587.33 206.197 588.241 219.074C589.136 231.713 588.364 243.806 586.473 256.259C585.54 262.402 584.033 269.251 581.728 275.126C580.543 278.149 579.12 281.279 577.542 284.175C576.876 285.397 575.413 286.778 575.16 288.121C574.761 290.252 576.629 293.126 577.097 295.231C578.625 302.115 578.976 309.25 578.455 316.237C578.177 319.985 577.557 323.336 576.093 326.86C574.228 331.35 575.095 334.78 575.871 339.408C576.702 344.361 577.497 355.62 571.332 358.434C570.897 358.397 570.46 358.359 570.024 358.321C568.923 357.261 567.945 357.323 567.091 358.511C565.496 358.945 563.939 360.064 562.259 360.546C558.362 361.664 554.157 361.732 550.092 362.223C542.137 363.185 534.207 364.883 526.391 365.088C517.136 365.331 507.481 365.028 498.431 363.673C496.561 363.392 494.374 362.651 492.503 362.509C489.965 362.316 488.182 363.727 485.561 363.395C481.499 362.881 478.932 359.29 478.667 356.347C477.821 346.969 484.048 342.669 494.226 341.004C487.649 333.139 480.078 326.686 478.328 316.585C476.606 306.647 480.341 295.145 487.126 287.182C493.639 279.539 504.752 274.429 516.212 276.368C521.531 277.268 546.624 283.457 541.774 290.478C540.698 287.266 534.083 287.888 530.886 287.424C525.584 286.655 520.282 285.494 514.902 285.733C504.321 286.203 494.094 291.432 488.97 299.347C483.063 308.472 485.759 317.578 492.87 325.369C499.372 332.493 506.076 339.977 514.82 345.12C513.13 347.366 513.741 348.07 510.383 347.668C508.078 347.392 505.921 345.89 503.591 345.516C498.76 344.742 491.155 348.049 488.17 351.356C486.406 353.31 486.472 354.275 489.724 355.479C492.124 356.366 495.903 355.908 498.48 356.1C504.893 356.578 511.428 356.738 517.861 356.719C528.997 356.685 539.353 355.193 550.374 354.227C555.258 353.798 560.366 354.292 565.145 352.79C571.618 350.757 570.032 344.784 569.193 339.946C568.362 335.153 569.208 331.436 570.11 326.69C570.5 324.629 571.23 322.249 570.713 320.174C570.1 317.709 569 316.618 569.14 313.868C569.639 304.084 568.17 293.78 565.065 284.336C558.323 263.826 541.86 247.638 528.129 230.205C524.251 225.282 520.174 220.616 517.086 215.284C514.162 210.232 512.148 204.889 509.243 199.823C502.842 188.657 496.77 177.156 493.029 165.145C488.79 166.539 484.222 168.589 479.678 169.081C474.529 169.638 469.025 166.165 465.777 163.106C458.372 156.131 456.683 146.671 457.236 137.682C457.4 135.022 457.598 132.34 458.169 129.715C458.539 128.011 460.938 123.887 460.392 122.299C459.806 120.6 456.397 119.124 455.351 117.441C454.017 115.299 453.864 112.542 453.935 110.179C454.001 108.022 455.426 97.4599 459.52 101.777C461.865 104.25 458.438 113.575 460.817 114.844C462.959 115.986 465.909 114.591 468.129 117.201C470.527 120.022 469.243 123.5 468.402 126.504C466.664 132.717 465.032 139.426 465.076 145.807C465.116 151.618 466.359 158.964 473.959 161.314C477.799 162.501 480.714 161.684 483.578 159.473C484.234 158.842 484.904 158.221 485.586 157.61C486.213 156.71 487.174 156.598 488.47 157.275C489.43 156.638 490.851 152.24 491.331 151.257C497.218 139.207 487.937 125.371 484.535 113.548C482.454 106.316 480.64 99.0626 484.852 92.0833C485.534 90.9534 487.412 89.9715 486.285 88.3505C485.988 87.9241 483.153 87.7242 482.481 87.2287C480.293 85.6157 480.749 82.6085 480.749 80.4552C475.69 81.7585 474.232 78.4704 474.89 74.4404C471.117 74.9402 468.496 75.9042 467.098 72.2568C465.86 69.0222 467.73 65.7238 468.972 62.7096C451.511 61.1463 432.653 59.1432 418.738 49.0784C415.307 46.5965 412.454 43.4726 410.076 40.2364C409.647 39.6512 407.623 35.5314 406.953 35.3164C404.96 34.6771 403.288 37.9344 401.516 38.7412C399.942 39.4577 397.704 39.8527 395.955 40.2893C394.309 40.7006 388.506 40.7827 387.477 41.4965C384.903 43.2819 385.106 53.6034 385.086 55.9988C385.017 64.2491 387.221 72.4708 391.298 79.9824C395.138 87.0568 401.013 96.7855 408.693 101.415C410.634 102.586 412.381 103.193 414.84 103.096C416.597 103.027 418.339 102 420.168 102.534C424.798 103.887 423.142 106.575 419.583 107.846C409.411 111.481 400.837 103.491 394.955 97.909C393.232 104.532 401.22 112.369 405.446 117.772C408.139 121.216 410.801 124.663 413.364 128.177C415.224 130.729 418.881 135.442 412.386 133.471C409.252 147.208 400.653 159.222 396.261 172.572C391.753 186.275 387.823 201.923 387.823 216.194C391.256 214.198 392.987 205.101 397.604 212.063C398.104 212.816 397.947 214.063 398.606 214.721C399.516 215.632 400.612 215.379 402.007 216.028C404.22 217.056 405.647 219.106 403.669 220.884C406.216 220.389 408.884 220.641 409.433 223.158C409.741 224.57 407.265 231.114 405.418 231.648C399.785 233.277 393.541 223.884 392.015 220.896C388.497 223.846 384.443 226.115 381.201 221.344C378.784 217.788 380.186 212.409 380.527 208.538C381.214 200.741 382.111 193.135 383.458 185.413C385.983 170.932 392.393 158.054 400.265 145.02C402.433 141.432 404.835 137.76 406.771 134.089C409.691 128.551 405.122 129.857 400.656 130.662C391.907 132.238 382.745 133.461 373.905 134.019C369.29 134.31 363.381 134.484 358.946 135.598C355.829 136.381 356.364 135.84 355.111 138.63C354.551 139.878 353.919 141.206 352.931 142.275C347.894 147.728 334.845 146.815 327.639 146.409C328.076 144.109 328.507 141.808 328.96 139.511C323.413 140.599 316.824 141.358 311.111 141.302C308.035 141.273 304.764 140.881 301.696 140.667C299.434 140.51 295.145 139.171 293.017 139.692C290.548 140.296 286.815 147.752 285.404 150.156C282.754 154.67 278.018 159.686 276.346 164.44C274.863 168.654 277.889 175.925 278.839 180.12C280.212 186.184 281.464 192.259 283.765 198.139C285.434 202.402 287.357 208.278 292.481 210.405C297.586 212.524 301.255 213.716 306.78 213.285C316.51 212.525 326.862 213.773 336.468 215.353C346.359 216.98 355.417 217.713 364.81 220.612C386.114 227.19 399.681 247.453 391.648 266.015C387.028 276.692 379.417 284.627 368.253 291.231C362.564 294.597 355.842 297.328 349.605 299.922C346.742 301.113 343.926 302.557 341.008 303.615C338.875 304.389 335.209 306.169 332.892 306.364C335.464 307.386 337.74 306.429 340.416 306.111C344.202 305.661 348.068 305.565 351.868 305.173C357.783 304.561 363.61 304.1 369.526 303.486C374.576 302.963 380.274 302.777 385.293 303.38C387.718 303.671 391.367 304.246 393.526 305.222C395.224 305.989 396.781 307.757 398.607 308.633C400.615 301.743 399.676 293.25 399.77 286.169C399.847 280.39 400.155 274.737 400.807 268.985C401.536 262.55 396.824 255.233 395.084 248.932C393.456 243.034 389.118 235.559 390.715 229.402C392.728 221.642 397.998 235.583 398.723 237.576C400.991 243.813 403.625 249.901 406.138 256.063C409.129 263.395 412.142 270.498 416.497 277.368C420.121 283.084 424.286 289.79 431.735 292.579C431.12 284.172 430.438 276.388 426.254 268.637C422.287 261.287 416.237 254.75 413.592 246.874C412.278 242.961 412.085 238.958 412.02 234.916C411.976 232.196 412.125 228.54 415.617 231.472C418.386 233.798 418.924 241.215 420.136 244.346C420.72 245.852 421.529 247.235 422.174 248.701C422.464 249.361 424.42 252.576 424.42 253.008C426.436 258.09 430.893 262.964 434.026 267.641Z" fill="black"/>
<path fill-rule="evenodd" clip-rule="evenodd" d="M220.202 82.3657C220.394 84.3342 221.761 89.4363 220.011 90.9942C217.69 93.0611 216.591 90.4025 215.587 88.3064C213.49 83.9262 212.448 75.4441 216.592 71.794C220.918 67.9823 229.466 67.8796 234.082 64.0835C235.936 62.5586 235.758 62.8769 235.596 60.4928C235.505 59.1467 234.463 57.3581 233.959 56.1483C232.649 53.0044 231.212 49.8984 229.842 46.7729C227.448 47.6845 224.003 50.4966 221.645 48.1395C219.465 45.9602 223.092 42.3895 225.618 41.7524C224.299 39.344 218.086 39.7893 216.902 36.2515C215.873 33.1768 218.828 34.3986 219.474 33.1876C220.235 31.7627 218.677 29.8363 219.479 28.5232C222.261 23.9642 225.342 32.3468 226.728 33.8431C229.305 36.626 233.796 37.2339 234.191 41.4433C234.435 44.0349 234.201 45.2399 235.479 47.785C236.656 50.1281 238.055 52.3749 239.042 54.786C240.528 58.4189 242.819 65.0302 239.915 68.548C237.466 71.5152 231.519 73.7771 227.653 75.0459C225.716 75.6808 223.031 76.0677 221.464 77.3046C219.419 78.9181 220.056 79.9097 220.202 82.3657Z" fill="black"/>
<path fill-rule="evenodd" clip-rule="evenodd" d="M421.114 192.22C420.673 191.64 420.231 191.059 419.79 190.479C416.73 193.209 413.341 194.331 410.248 190.863C407.063 187.292 408.259 181.938 409.498 178.038C410.135 176.031 413.358 168.118 415.423 174.146C415.878 175.476 414.355 178.439 414.08 179.741C413.537 182.296 413.111 184.746 413.492 187.348C417.08 184.666 418.836 177.865 422.478 184.927C423.798 187.488 423.943 191.705 427.458 187.815C429.334 185.738 429.455 181.903 430.333 179.456C436.325 180.653 435.233 188.055 433.233 191.661C430.048 197.404 425.714 195.555 421.114 192.22Z" fill="black"/>
<path fill-rule="evenodd" clip-rule="evenodd" d="M442.093 63.4022C444.225 66.3715 440.193 71.8016 439.462 74.8504C443.032 74.5051 451.868 67.3112 454.354 68.4973C459.531 70.9657 448.596 79.5748 446.495 80.8365C429.703 90.9186 432.731 61.7546 442.093 63.4022Z" fill="black"/>
<path fill-rule="evenodd" clip-rule="evenodd" d="M421.037 96.4687C427.31 95.0097 435.769 104.415 431.7 109.073C428.781 112.414 425.174 110.504 424.259 107.562C423.794 106.062 424.207 104.255 423.597 102.582C422.847 100.522 421.841 98.5156 421.037 96.4687Z" fill="black"/>
<path fill-rule="evenodd" clip-rule="evenodd" d="M228.086 55.9266C232.857 59.2764 223.108 67.4429 218.221 61.0482C216.877 59.2893 216.633 57.6839 218.626 57.0344C219.632 56.7069 222.005 57.7795 223.426 57.5899C224.983 57.3818 226.674 56.467 228.086 55.9266Z" fill="black"/>
<path fill-rule="evenodd" clip-rule="evenodd" d="M211.693 42.5321C209.841 40.603 204.639 28.7366 211.086 31.3795C214.323 32.7066 216.999 42.8509 211.693 42.5321Z" fill="black"/>
<path fill-rule="evenodd" clip-rule="evenodd" d="M424.559 297.753C424.376 296.255 424.193 294.757 424.01 293.26C426.39 294.274 431.167 295.275 431.995 297.545C433.552 301.81 426.324 298.398 424.559 297.753Z" fill="black"/>
<path fill-rule="evenodd" clip-rule="evenodd" d="M493.661 117.128C492.243 115.528 487.833 102.182 491.659 102.487C492.329 107.329 492.467 112.357 493.661 117.128Z" fill="black"/>
<path fill-rule="evenodd" clip-rule="evenodd" d="M434.026 267.641C430.893 262.965 426.436 258.09 424.419 253.007C429.145 256.204 432.838 262.735 434.026 267.641Z" fill="black"/>
<path fill-rule="evenodd" clip-rule="evenodd" d="M562.504 256.8C562.695 258.495 562.886 260.19 563.076 261.884C560.238 262.497 562.33 257.359 562.504 256.8Z" fill="black"/>
<path fill-rule="evenodd" clip-rule="evenodd" d="M424.426 253.015C423.082 251.794 422.507 250.291 422.174 248.701C422.924 250.139 423.675 251.577 424.426 253.015Z" fill="black"/>
<path fill-rule="evenodd" clip-rule="evenodd" d="M440.673 329.747C440.723 328.239 440.773 326.731 440.823 325.227C440.773 326.736 440.723 328.241 440.673 329.747Z" fill="black"/>
<path fill-rule="evenodd" clip-rule="evenodd" d="M228.429 85.0396C229.631 85.1644 230.833 85.2892 232.036 85.414C231.087 85.7853 228.851 86.2786 228.429 85.0396Z" fill="black"/>
<path fill-rule="evenodd" clip-rule="evenodd" d="M468.157 345.576C469.408 345.418 470.663 345.059 471.892 345.637C470.645 345.617 469.401 345.597 468.157 345.576Z" fill="black"/>
<path fill-rule="evenodd" clip-rule="evenodd" d="M432.417 311.505C432.434 312.622 432.45 313.739 432.465 314.852C432.448 313.734 432.432 312.62 432.417 311.505Z" fill="black"/>
<path fill-rule="evenodd" clip-rule="evenodd" d="M458.261 294.125C458.183 295.316 458.104 296.507 458.025 297.696C458.104 296.504 458.183 295.314 458.261 294.125Z" fill="black"/>
<path fill-rule="evenodd" clip-rule="evenodd" d="M441.245 298.787C441.177 297.75 441.109 296.714 441.042 295.679C441.11 296.716 441.178 297.752 441.245 298.787Z" fill="black"/>
<path fill-rule="evenodd" clip-rule="evenodd" d="M478.413 307.93C478.346 308.853 478.279 309.777 478.212 310.697C478.279 309.773 478.346 308.851 478.413 307.93Z" fill="black"/>
<path fill-rule="evenodd" clip-rule="evenodd" d="M253.839 331.251C252.622 331.763 251.406 331.814 250.193 331.244C251.409 331.247 252.624 331.249 253.839 331.251Z" fill="black"/>
<path fill-rule="evenodd" clip-rule="evenodd" d="M378.376 52.3108C378.393 53.2235 378.41 54.1361 378.427 55.045C378.409 54.1313 378.392 53.2213 378.376 52.3108Z" fill="black"/>
<path fill-rule="evenodd" clip-rule="evenodd" d="M257.548 77.2124C256.302 77.2913 255.055 77.3697 253.81 77.4485C255.056 77.3697 256.303 77.2913 257.548 77.2124Z" fill="black"/>
<path fill-rule="evenodd" clip-rule="evenodd" d="M514.94 80.7248C514.933 79.824 514.927 78.9232 514.921 78.024C515.493 78.9232 515.504 79.8229 514.94 80.7248Z" fill="black"/>
<path fill-rule="evenodd" clip-rule="evenodd" d="M220.202 82.3657C220.145 81.4088 220.088 80.4523 220.032 79.4969C220.09 80.4545 220.146 81.4098 220.202 82.3657Z" fill="black"/>
<path fill-rule="evenodd" clip-rule="evenodd" d="M526.391 365.088C527.232 365.093 528.074 365.098 528.908 365.103C528.063 365.098 527.227 365.093 526.391 365.088Z" fill="black"/>
<path fill-rule="evenodd" clip-rule="evenodd" d="M195.151 0.160889C194.044 0.239782 192.937 0.318675 191.83 0.397028C192.937 0.318675 194.044 0.239782 195.151 0.160889Z" fill="black"/>
<path fill-rule="evenodd" clip-rule="evenodd" d="M304.312 353.182C305.026 353.181 305.739 353.181 306.444 353.181C305.728 353.182 305.021 353.182 304.312 353.182Z" fill="black"/>
<path fill-rule="evenodd" clip-rule="evenodd" d="M414.84 103.096C413.758 103.006 412.676 102.915 411.594 102.824C412.676 102.915 413.759 103.006 414.84 103.096Z" fill="black"/>
<path fill-rule="evenodd" clip-rule="evenodd" d="M464.031 351.604C464.097 350.859 464.163 350.114 464.23 349.372C464.163 350.118 464.097 350.861 464.031 351.604Z" fill="black"/>
<path fill-rule="evenodd" clip-rule="evenodd" d="M346.888 93.5553C345.822 93.5472 344.757 93.5396 343.692 93.532C344.763 93.0144 345.826 93.1624 346.888 93.5553Z" fill="black"/>
<path fill-rule="evenodd" clip-rule="evenodd" d="M204.733 0.409917C203.659 0.381278 202.524 0.848693 201.534 0.137573C202.601 0.228354 203.667 0.319136 204.733 0.409917Z" fill="black"/>
<path fill-rule="evenodd" clip-rule="evenodd" d="M175.73 88.3553C174.701 88.4342 173.671 88.5131 172.643 88.5915C173.673 88.5126 174.701 88.4342 175.73 88.3553Z" fill="black"/>
<path fill-rule="evenodd" clip-rule="evenodd" d="M240.572 330.479C239.487 330.573 238.403 330.668 237.32 330.762C238.404 330.668 239.488 330.573 240.572 330.479Z" fill="black"/>
<path fill-rule="evenodd" clip-rule="evenodd" d="M267.559 76.6671C266.502 76.686 265.445 76.7049 264.389 76.7238C265.437 76.3731 266.486 76.0424 267.559 76.6671Z" fill="black"/>
<path fill-rule="evenodd" clip-rule="evenodd" d="M440.635 318.262C440.629 317.496 440.622 316.731 440.616 315.967C440.622 316.733 440.629 317.497 440.635 318.262Z" fill="black"/>
<path fill-rule="evenodd" clip-rule="evenodd" d="M562.892 253.332C562.778 254.258 562.664 255.183 562.551 256.108C562.664 255.183 562.778 254.258 562.892 253.332Z" fill="black"/>
<path fill-rule="evenodd" clip-rule="evenodd" d="M425.706 312.988C425.627 312.201 425.548 311.413 425.47 310.627C425.548 311.415 425.627 312.202 425.706 312.988Z" fill="black"/>
<path fill-rule="evenodd" clip-rule="evenodd" d="M70.0703 305.75C69.8769 306.536 69.1912 306.691 68.0133 306.214L70.0703 305.75Z" fill="black"/>
<path fill-rule="evenodd" clip-rule="evenodd" d="M465.174 306.1C465.111 305.415 465.049 304.731 464.986 304.048C465.05 304.733 465.111 305.416 465.174 306.1Z" fill="black"/>
<path fill-rule="evenodd" clip-rule="evenodd" d="M243.651 78.3164C242.761 78.4175 241.871 78.518 240.982 78.619C241.872 78.518 242.761 78.4175 243.651 78.3164Z" fill="black"/>
<path fill-rule="evenodd" clip-rule="evenodd" d="M431.881 300.265C431.88 300.937 431.879 301.609 431.877 302.279C431.879 301.606 431.88 300.935 431.881 300.265Z" fill="black"/>
<path fill-rule="evenodd" clip-rule="evenodd" d="M378.216 58.9442C378.217 59.5802 378.218 60.2157 378.218 60.8485C378.218 60.2119 378.217 59.5781 378.216 58.9442Z" fill="black"/>
<path fill-rule="evenodd" clip-rule="evenodd" d="M53.7129 207.905C53.6249 208.575 53.5369 209.246 53.4496 209.913C53.5376 209.242 53.6249 208.574 53.7129 207.905Z" fill="black"/>
<path fill-rule="evenodd" clip-rule="evenodd" d="M586.678 253.972C586.63 253.341 586.583 252.71 586.536 252.082C586.583 252.714 586.63 253.343 586.678 253.972Z" fill="black"/>
<path fill-rule="evenodd" clip-rule="evenodd" d="M127.173 337.27C126.254 337.258 125.335 337.246 124.416 337.234C125.346 336.701 126.263 336.815 127.173 337.27Z" fill="black"/>
<path fill-rule="evenodd" clip-rule="evenodd" d="M234.214 42.3911C234.199 41.7584 234.184 41.1256 234.169 40.495C234.641 41.1213 234.793 41.7503 234.214 42.3911Z" fill="black"/>
<path fill-rule="evenodd" clip-rule="evenodd" d="M160.822 34.3657C160.886 33.7415 160.95 33.1174 161.013 32.4971C160.949 33.1223 160.886 33.7437 160.822 34.3657Z" fill="black"/>
<path fill-rule="evenodd" clip-rule="evenodd" d="M464.633 252.844C464.601 252.156 464.569 251.468 464.538 250.781C464.57 251.47 464.601 252.157 464.633 252.844Z" fill="black"/>
<path fill-rule="evenodd" clip-rule="evenodd" d="M458.716 288.381C458.693 289.03 458.67 289.679 458.646 290.324C458.668 289.674 458.692 289.027 458.716 288.381Z" fill="black"/>
<path fill-rule="evenodd" clip-rule="evenodd" d="M352.917 350.947C353.494 350.946 354.069 350.945 354.639 350.945C354.061 350.947 353.489 350.947 352.917 350.947Z" fill="black"/>
<path fill-rule="evenodd" clip-rule="evenodd" d="M72.6396 351.275C73.2147 351.288 73.7891 351.301 74.357 351.315C73.78 351.302 73.2095 351.289 72.6396 351.275Z" fill="black"/>
<path fill-rule="evenodd" clip-rule="evenodd" d="M420.309 294.337C414.703 290.719 409.815 285.307 408.678 279.513C411.088 281.789 413.115 284.328 415.526 286.602C416.485 287.505 417.66 288.283 418.58 289.202C420.679 291.301 420.309 291.394 420.309 294.337Z" fill="black"/>
<path fill-rule="evenodd" clip-rule="evenodd" d="M400.614 269.876C397.923 264.698 395.588 258.417 396.057 252.704C397.913 257.891 402.22 264.406 400.614 269.876Z" fill="black"/>
<path fill-rule="evenodd" clip-rule="evenodd" d="M409.642 300.323C409.597 301.827 409.551 303.33 409.507 304.829C409.554 303.324 409.598 301.824 409.642 300.323Z" fill="black"/>
<path fill-rule="evenodd" clip-rule="evenodd" d="M53.8092 341.182C55.6482 341.273 57.4879 341.365 59.3269 341.456C57.4794 341.477 55.6075 341.851 53.8092 341.182Z" fill="black"/>
<path fill-rule="evenodd" clip-rule="evenodd" d="M409.632 295.357C409.639 296.639 409.646 297.921 409.652 299.2C409.646 297.917 409.639 296.637 409.632 295.357Z" fill="black"/>
<path fill-rule="evenodd" clip-rule="evenodd" d="M334.07 146.733C333.035 146.688 331.999 146.642 330.972 146.597C332.01 146.642 333.041 146.688 334.07 146.733Z" fill="black"/>
<path fill-rule="evenodd" clip-rule="evenodd" d="M350.913 114.849C350.909 113.809 350.905 112.768 350.901 111.73C350.904 112.771 350.909 113.81 350.913 114.849Z" fill="black"/>
<path fill-rule="evenodd" clip-rule="evenodd" d="M328.678 140.943C328.631 140.211 328.164 139.843 327.278 139.838C329.057 139.035 329.524 139.404 328.678 140.943Z" fill="black"/>
<path fill-rule="evenodd" clip-rule="evenodd" d="M381.429 198.812C381.498 197.887 381.568 196.961 381.637 196.038C381.567 196.964 381.498 197.888 381.429 198.812Z" fill="black"/>
<path fill-rule="evenodd" clip-rule="evenodd" d="M79.9199 341.836C81.1606 341.764 82.4012 341.692 83.6419 341.62C82.4006 341.692 81.1606 341.764 79.9199 341.836Z" fill="black"/>
<path fill-rule="evenodd" clip-rule="evenodd" d="M340.496 216.167L344.188 216.145C342.957 216.153 341.726 216.16 340.496 216.167Z" fill="black"/>
<path fill-rule="evenodd" clip-rule="evenodd" d="M375.734 103.369C374.875 103.375 374.017 103.381 373.166 103.386C374.028 103.38 374.88 103.375 375.734 103.369Z" fill="black"/>
<path fill-rule="evenodd" clip-rule="evenodd" d="M554.696 353.838C555.773 353.834 556.848 353.83 557.925 353.826C556.852 354.392 555.775 354.377 554.696 353.838Z" fill="black"/>
<path fill-rule="evenodd" clip-rule="evenodd" d="M102.856 229.392C102.126 229.409 101.397 229.427 100.674 229.444C101.406 229.427 102.131 229.409 102.856 229.392Z" fill="black"/>
<path fill-rule="evenodd" clip-rule="evenodd" d="M490.426 94.7173C491.117 95.2739 490.209 96.5534 489.386 96.1125C489.733 95.6473 490.079 95.1825 490.426 94.7173Z" fill="black"/>
<path fill-rule="evenodd" clip-rule="evenodd" d="M153.077 285.734C153.108 284.947 153.139 284.159 153.169 283.374C153.138 284.161 153.108 284.948 153.077 285.734Z" fill="black"/>
<path fill-rule="evenodd" clip-rule="evenodd" d="M399.77 286.169C399.82 285.348 399.87 284.527 399.918 283.706C399.868 284.528 399.819 285.349 399.77 286.169Z" fill="black"/>
<path fill-rule="evenodd" clip-rule="evenodd" d="M571.929 200.565C571.97 201.388 572.012 202.21 572.052 203.03C572.011 202.207 571.97 201.386 571.929 200.565Z" fill="black"/>
<path fill-rule="evenodd" clip-rule="evenodd" d="M239.489 293.707C240.591 293.785 241.692 293.864 242.795 293.942C241.692 293.864 240.59 293.785 239.489 293.707Z" fill="black"/>
<path fill-rule="evenodd" clip-rule="evenodd" d="M390.635 230.626C390.688 229.809 390.743 228.992 390.796 228.177C390.742 228.995 390.688 229.811 390.635 230.626Z" fill="black"/>
<path fill-rule="evenodd" clip-rule="evenodd" d="M199.139 246.168C200.237 246.253 201.335 246.337 202.434 246.421C201.335 246.337 200.237 246.252 199.139 246.168Z" fill="black"/>
<path fill-rule="evenodd" clip-rule="evenodd" d="M296.332 317.608C295.624 317.608 294.917 317.608 294.218 317.608C294.928 317.608 295.63 317.608 296.332 317.608Z" fill="black"/>
<path fill-rule="evenodd" clip-rule="evenodd" d="M358.724 117.922C358.682 118.685 358.64 119.448 358.599 120.208C358.642 119.444 358.683 118.682 358.724 117.922Z" fill="black"/>
<path fill-rule="evenodd" clip-rule="evenodd" d="M374.395 303.118C375.482 302.472 376.54 302.898 377.601 303.178C376.532 303.158 375.463 303.138 374.395 303.118Z" fill="black"/>
<path fill-rule="evenodd" clip-rule="evenodd" d="M247.281 84.6561C246.566 84.6316 245.851 84.6066 245.143 84.5795C245.861 84.6039 246.571 84.63 247.281 84.6561Z" fill="black"/>
<path fill-rule="evenodd" clip-rule="evenodd" d="M420.612 317.158C420.548 316.397 420.484 315.638 420.42 314.88C420.484 315.642 420.548 316.4 420.612 317.158Z" fill="black"/>
<path fill-rule="evenodd" clip-rule="evenodd" d="M362.069 231.352C361.48 231.356 360.891 231.359 360.309 231.363C360.901 231.36 361.485 231.356 362.069 231.352Z" fill="black"/>
<path fill-rule="evenodd" clip-rule="evenodd" d="M386.928 258.962C386.929 258.328 386.93 257.694 386.93 257.063C386.93 257.698 386.929 258.331 386.928 258.962Z" fill="black"/>
<path fill-rule="evenodd" clip-rule="evenodd" d="M349.222 305.46C350.105 305.364 350.987 305.268 351.869 305.173C350.986 305.268 350.104 305.364 349.222 305.46Z" fill="black"/>
<path fill-rule="evenodd" clip-rule="evenodd" d="M311.063 213.219C312.019 213.214 312.975 213.209 313.931 213.204C312.979 213.673 312.022 213.585 311.063 213.219Z" fill="black"/>
<path fill-rule="evenodd" clip-rule="evenodd" d="M360.589 135.611C360.037 135.606 359.484 135.602 358.939 135.598C359.494 135.602 360.041 135.606 360.589 135.611Z" fill="black"/>
<path fill-rule="evenodd" clip-rule="evenodd" d="M197.322 253.221C196.753 253.214 196.183 253.208 195.621 253.2C196.193 253.208 196.758 253.214 197.322 253.221Z" fill="black"/>
<path fill-rule="evenodd" clip-rule="evenodd" d="M87.2542 222.009C88.2083 222.017 89.1624 222.026 90.1165 222.034C89.1565 222.484 88.2024 222.496 87.2542 222.009Z" fill="black"/>
<path fill-rule="evenodd" clip-rule="evenodd" d="M572.022 223.328C571.961 223.935 571.901 224.544 571.843 225.149C571.903 224.539 571.962 223.933 572.022 223.328Z" fill="black"/>
<path fill-rule="evenodd" clip-rule="evenodd" d="M329.121 321.062C329.202 320.398 329.284 319.733 329.365 319.072C329.283 319.737 329.202 320.399 329.121 321.062Z" fill="black"/>
<path fill-rule="evenodd" clip-rule="evenodd" d="M174.847 241.942C175.81 241.953 176.775 241.965 177.739 241.977C176.765 242.537 175.806 242.184 174.847 241.942Z" fill="black"/>
<path fill-rule="evenodd" clip-rule="evenodd" d="M394.648 125.366C395.586 125.277 396.523 125.188 397.461 125.1C396.523 125.188 395.586 125.277 394.648 125.366Z" fill="black"/>
<path fill-rule="evenodd" clip-rule="evenodd" d="M316.286 338.187C316.371 338.885 316.455 339.582 316.539 340.278C316.455 339.58 316.37 338.884 316.286 338.187Z" fill="black"/>
<path fill-rule="evenodd" clip-rule="evenodd" d="M399.786 292.307C399.784 291.655 399.782 291.005 399.782 290.357C399.783 291.009 399.784 291.658 399.786 292.307Z" fill="black"/>
<path fill-rule="evenodd" clip-rule="evenodd" d="M59.7832 341.549C60.6907 341.649 61.5983 341.748 62.5052 341.848C61.5976 341.748 60.6901 341.649 59.7832 341.549Z" fill="black"/>
<path fill-rule="evenodd" clip-rule="evenodd" d="M76.8088 341.855C77.7047 341.243 78.6142 341.431 79.5269 341.823C78.6207 341.834 77.7144 341.844 76.8088 341.855Z" fill="black"/>
<path fill-rule="evenodd" clip-rule="evenodd" d="M240.52 252.199C241.407 252.108 242.294 252.018 243.181 251.927C242.293 252.018 241.406 252.108 240.52 252.199Z" fill="black"/>
<path fill-rule="evenodd" clip-rule="evenodd" d="M339.129 345.301C340.033 345.2 340.937 345.099 341.842 344.998C340.937 345.099 340.033 345.2 339.129 345.301Z" fill="black"/>
<path fill-rule="evenodd" clip-rule="evenodd" d="M307.499 346.475C308.422 346.376 309.343 346.277 310.266 346.178C309.343 346.277 308.422 346.376 307.499 346.475Z" fill="black"/>
<path fill-rule="evenodd" clip-rule="evenodd" d="M358.275 122.536C358.234 123.158 358.193 123.781 358.154 124.399C358.194 123.775 358.234 123.156 358.275 122.536Z" fill="black"/>
<path fill-rule="evenodd" clip-rule="evenodd" d="M141.059 270.85C141.141 270.19 141.223 269.529 141.305 268.871C141.222 269.532 141.141 270.191 141.059 270.85Z" fill="black"/>
<path fill-rule="evenodd" clip-rule="evenodd" d="M351.153 106.448C351.177 105.8 351.201 105.152 351.226 104.507C351.202 105.156 351.178 105.802 351.153 106.448Z" fill="black"/>
<path fill-rule="evenodd" clip-rule="evenodd" d="M175.01 263.505C175.091 264.166 175.173 264.827 175.254 265.486C175.172 264.824 175.091 264.164 175.01 263.505Z" fill="black"/>
<path fill-rule="evenodd" clip-rule="evenodd" d="M178.066 241.949C179.001 242.035 179.937 242.121 180.871 242.208C179.936 242.121 179.001 242.035 178.066 241.949Z" fill="black"/>
<path fill-rule="evenodd" clip-rule="evenodd" d="M326.966 338.364C327.499 339.671 327.303 342.709 325.791 343.629C322.653 345.54 322.33 342.051 321.707 340.166C319.979 334.938 317.197 329.1 316.488 323.725C316.271 322.076 316.153 318.988 318.764 318.432C321.284 317.896 322.56 321.231 323.43 322.944C325.84 327.697 327.239 333.211 326.966 338.364Z" fill="black"/>
<path fill-rule="evenodd" clip-rule="evenodd" d="M326.966 338.364C327.002 337.689 327.038 337.014 327.073 336.342C327.037 337.018 327.002 337.691 326.966 338.364Z" fill="black"/>
</svg>
