<svg width="96" height="29" viewBox="0 0 96 29" fill="none" xmlns="http://www.w3.org/2000/svg">
<path d="M19.3359 23.8252V28H0.855469V24.4375L9.59473 15.0674C10.473 14.0902 11.1657 13.2305 11.6729 12.4883C12.18 11.7337 12.5449 11.0596 12.7676 10.4658C13.0026 9.8597 13.1201 9.28451 13.1201 8.74023C13.1201 7.92383 12.984 7.22493 12.7119 6.64355C12.4398 6.0498 12.0378 5.59212 11.5059 5.27051C10.9863 4.94889 10.3431 4.78809 9.57617 4.78809C8.75977 4.78809 8.05469 4.986 7.46094 5.38184C6.87956 5.77767 6.43424 6.32812 6.125 7.0332C5.82812 7.73828 5.67969 8.53613 5.67969 9.42676H0.317383C0.317383 7.81868 0.700846 6.34668 1.46777 5.01074C2.2347 3.66243 3.31706 2.59245 4.71484 1.80078C6.11263 0.996745 7.77018 0.594727 9.6875 0.594727C11.5801 0.594727 13.1758 0.903971 14.4746 1.52246C15.7858 2.12858 16.7754 3.00684 17.4434 4.15723C18.1237 5.29525 18.4639 6.65592 18.4639 8.23926C18.4639 9.12988 18.3216 10.002 18.0371 10.8555C17.7526 11.6966 17.3444 12.5378 16.8125 13.3789C16.293 14.2077 15.6621 15.0488 14.9199 15.9023C14.1777 16.7559 13.3551 17.6403 12.4521 18.5557L7.75781 23.8252H19.3359ZM44.6445 13.8799V24.5859C44.224 25.0931 43.5745 25.6436 42.6963 26.2373C41.818 26.8187 40.6862 27.3197 39.3008 27.7402C37.9154 28.1608 36.2393 28.3711 34.2725 28.3711C32.5283 28.3711 30.9388 28.0866 29.5039 27.5176C28.069 26.9362 26.832 26.0889 25.793 24.9756C24.7663 23.8623 23.9746 22.5016 23.418 20.8936C22.8613 19.2731 22.583 17.4238 22.583 15.3457V13.6572C22.583 11.5791 22.849 9.72982 23.3809 8.10938C23.9251 6.48893 24.6982 5.12207 25.7002 4.00879C26.7021 2.89551 27.8958 2.04818 29.2812 1.4668C30.6667 0.885417 32.2067 0.594727 33.9014 0.594727C36.2516 0.594727 38.1813 0.97819 39.6904 1.74512C41.1995 2.49967 42.3499 3.55111 43.1416 4.89941C43.9456 6.23535 44.4404 7.76921 44.626 9.50098H39.2266C39.0905 8.58561 38.8307 7.78776 38.4473 7.10742C38.0638 6.42708 37.5133 5.89518 36.7959 5.51172C36.0908 5.12826 35.1755 4.93652 34.0498 4.93652C33.1221 4.93652 32.2933 5.12826 31.5635 5.51172C30.846 5.88281 30.2399 6.43327 29.7451 7.16309C29.2503 7.8929 28.873 8.7959 28.6133 9.87207C28.3535 10.9482 28.2236 12.1976 28.2236 13.6201V15.3457C28.2236 16.7559 28.3597 18.0052 28.6318 19.0938C28.904 20.1699 29.306 21.0791 29.8379 21.8213C30.3822 22.5511 31.0501 23.1016 31.8418 23.4727C32.6335 23.8438 33.555 24.0293 34.6064 24.0293C35.4847 24.0293 36.2145 23.9551 36.7959 23.8066C37.3896 23.6582 37.8659 23.4788 38.2246 23.2686C38.5957 23.0459 38.8802 22.8356 39.0781 22.6377V17.8506H33.9941V13.8799H44.6445ZM54.4414 7.92383V28H49.0791V7.92383H54.4414ZM48.7451 2.69141C48.7451 1.91211 49.0173 1.26888 49.5615 0.761719C50.1058 0.254557 50.8356 0.000976562 51.751 0.000976562C52.654 0.000976562 53.3776 0.254557 53.9219 0.761719C54.4785 1.26888 54.7568 1.91211 54.7568 2.69141C54.7568 3.4707 54.4785 4.11393 53.9219 4.62109C53.3776 5.12826 52.654 5.38184 51.751 5.38184C50.8356 5.38184 50.1058 5.12826 49.5615 4.62109C49.0173 4.11393 48.7451 3.4707 48.7451 2.69141ZM65.6855 24.1035L70.1387 7.92383H75.7236L68.9512 28H65.5742L65.6855 24.1035ZM62.624 7.92383L67.0957 24.1221L67.1885 28H63.793L57.0205 7.92383H62.624ZM87.0977 28.3711C85.5391 28.3711 84.1413 28.1237 82.9043 27.6289C81.6673 27.1217 80.6159 26.4229 79.75 25.5322C78.8965 24.6416 78.2409 23.6087 77.7832 22.4336C77.3255 21.2461 77.0967 19.9844 77.0967 18.6484V17.9062C77.0967 16.3848 77.3132 14.9932 77.7461 13.7314C78.179 12.4697 78.7975 11.375 79.6016 10.4473C80.418 9.51953 81.4076 8.80827 82.5703 8.31348C83.7331 7.80632 85.0443 7.55273 86.5039 7.55273C87.9264 7.55273 89.1882 7.78776 90.2891 8.25781C91.39 8.72786 92.3115 9.39583 93.0537 10.2617C93.8083 11.1276 94.3773 12.1667 94.7607 13.3789C95.1442 14.5788 95.3359 15.9147 95.3359 17.3867V19.6133H79.3789V16.0508H90.085V15.6426C90.085 14.9004 89.9489 14.2386 89.6768 13.6572C89.417 13.0635 89.0212 12.5934 88.4893 12.2471C87.9574 11.9007 87.277 11.7275 86.4482 11.7275C85.7432 11.7275 85.137 11.8822 84.6299 12.1914C84.1227 12.5007 83.7083 12.9336 83.3867 13.4902C83.0775 14.0469 82.8424 14.7025 82.6816 15.457C82.5332 16.1992 82.459 17.0156 82.459 17.9062V18.6484C82.459 19.4525 82.5703 20.1947 82.793 20.875C83.028 21.5553 83.3558 22.1429 83.7764 22.6377C84.2093 23.1325 84.7288 23.516 85.335 23.7881C85.9535 24.0602 86.6523 24.1963 87.4316 24.1963C88.3965 24.1963 89.2933 24.0107 90.1221 23.6396C90.9632 23.2562 91.6868 22.681 92.293 21.9141L94.8906 24.7344C94.4701 25.3405 93.8949 25.9219 93.165 26.4785C92.4476 27.0352 91.5817 27.4928 90.5674 27.8516C89.5531 28.1979 88.3965 28.3711 87.0977 28.3711Z" fill="#F0386B"/>
</svg>