<svg width="30" height="46" viewBox="0 0 30 46" fill="none" xmlns="http://www.w3.org/2000/svg">
<path d="M4.42105 35.3513C4.98242 34.8829 5.89259 34.8829 6.45396 35.3513L15.5 42.8978L24.5459 35.3513C25.1074 34.8829 26.0176 34.8829 26.5791 35.3513C27.1403 35.8196 27.1403 36.5789 26.5791 37.0472L16.5165 45.4417C15.9551 45.91 15.0449 45.91 14.4835 45.4417L4.42105 37.0472C3.85965 36.5789 3.85965 35.8196 4.42105 35.3513Z" fill="#212121"/>
<path d="M15 28.4375C9.3125 28.4375 4.6875 23.8125 4.6875 18.125V11.875C4.6875 6.1875 9.3125 1.5625 15 1.5625C20.6875 1.5625 25.3125 6.1875 25.3125 11.875V18.125C25.3125 23.8125 20.6875 28.4375 15 28.4375ZM15 3.4375C10.35 3.4375 6.5625 7.225 6.5625 11.875V18.125C6.5625 22.775 10.35 26.5625 15 26.5625C19.65 26.5625 23.4375 22.775 23.4375 18.125V11.875C23.4375 7.225 19.65 3.4375 15 3.4375Z" fill="#292D32"/>
<path d="M15 14.6875C13.45 14.6875 12.1875 13.425 12.1875 11.875V9.375C12.1875 7.825 13.45 6.5625 15 6.5625C16.55 6.5625 17.8125 7.825 17.8125 9.375V11.875C17.8125 13.425 16.55 14.6875 15 14.6875ZM15 8.4375C14.4875 8.4375 14.0625 8.8625 14.0625 9.375V11.875C14.0625 12.3875 14.4875 12.8125 15 12.8125C15.5125 12.8125 15.9375 12.3875 15.9375 11.875V9.375C15.9375 8.8625 15.5125 8.4375 15 8.4375Z" fill="#292D32"/>
<path d="M15 8.4375C14.4875 8.4375 14.0625 8.0125 14.0625 7.5V2.5C14.0625 1.9875 14.4875 1.5625 15 1.5625C15.5125 1.5625 15.9375 1.9875 15.9375 2.5V7.5C15.9375 8.0125 15.5125 8.4375 15 8.4375Z" fill="#292D32"/>
</svg>
